<svg width="32" height="33" viewBox="0 0 32 33" fill="none" xmlns="http://www.w3.org/2000/svg">
<path d="M4 12.5H24C25.2425 12.5 25.8637 12.5 26.3539 12.703C27.0072 12.9736 27.5264 13.4928 27.7971 14.1461C28 14.6363 28 15.2575 28 16.5C28 17.7425 28 18.3637 27.7971 18.8539C27.5264 19.5072 27.0072 20.0264 26.3539 20.2971C25.8637 20.5 25.2425 20.5 24 20.5H17.3333" stroke="#454545" stroke-width="3" stroke-linecap="round" stroke-linejoin="round"/>
<path d="M8 20.5H4" stroke="#454545" stroke-width="3" stroke-linecap="round" stroke-linejoin="round"/>
<path d="M17.3333 20.5H20C21.2425 20.5 21.8637 20.5 22.3539 20.7029C23.0072 20.9736 23.5264 21.4928 23.7971 22.1461C24 22.6363 24 23.2575 24 24.5C24 25.7425 24 26.3637 23.7971 26.8539C23.5264 27.5072 23.0072 28.0264 22.3539 28.2971C21.8637 28.5 21.2425 28.5 20 28.5H4" stroke="#454545" stroke-width="3" stroke-linecap="round" stroke-linejoin="round"/>
<path d="M4 4.5H18.6667C19.9092 4.5 20.5304 4.5 21.0205 4.70299C21.6739 4.97364 22.1931 5.49277 22.4637 6.14617C22.6667 6.63624 22.6667 7.25749 22.6667 8.5C22.6667 9.74251 22.6667 10.3638 22.4637 10.8538C22.1931 11.5072 21.6739 12.0264 21.0205 12.297C20.5304 12.5 19.9092 12.5 18.6667 12.5H4" stroke="#454545" stroke-width="3" stroke-linecap="round" stroke-linejoin="round"/>
<path d="M17.3333 12.5V20.754C17.3333 22.2393 17.3333 22.9821 16.898 23.1404C16.4625 23.2988 15.9709 22.7348 14.9876 21.6071L14.3457 20.8707C13.8752 20.3311 13.64 20.0612 13.3333 20.0612C13.0267 20.0612 12.7915 20.3311 12.321 20.8707L11.679 21.6071C10.6957 22.7348 10.2041 23.2988 9.76872 23.1404C9.33334 22.9821 9.33334 22.2393 9.33334 20.754V12.5" stroke="#DE8254" stroke-width="2" stroke-linecap="round" stroke-linejoin="round"/>
</svg>
