<svg width="240" height="36" viewBox="0 0 240 36" fill="none" xmlns="http://www.w3.org/2000/svg">
<path d="M202.874 21.4V20.7L210.494 10.84H211.514V20.62H213.794V21.4H211.514V25H210.634V21.4H202.874ZM210.654 11.92L203.934 20.62H210.654V11.92ZM215.79 25.06C215.563 25.06 215.377 24.9867 215.23 24.84C215.083 24.6933 215.01 24.5067 215.01 24.28C215.01 24.0533 215.083 23.8667 215.23 23.72C215.377 23.5733 215.563 23.5 215.79 23.5C216.003 23.5 216.183 23.5733 216.33 23.72C216.477 23.8667 216.55 24.0533 216.55 24.28C216.55 24.5067 216.477 24.6933 216.33 24.84C216.183 24.9867 216.003 25.06 215.79 25.06ZM217.918 21.4V20.7L225.538 10.84H226.558V20.62H228.838V21.4H226.558V25H225.678V21.4H217.918ZM225.698 11.92L218.978 20.62H225.698V11.92ZM238.894 11.52L233.294 25H232.374L238.054 11.58H229.694V10.8H238.894V11.52Z" fill="#454545"/>
<path d="M202.874 21.4H202.074V22.2H202.874V21.4ZM202.874 20.7L202.241 20.2108L202.074 20.4269V20.7H202.874ZM210.494 10.84V10.04H210.102L209.861 10.3508L210.494 10.84ZM211.514 10.84H212.314V10.04H211.514V10.84ZM211.514 20.62H210.714V21.42H211.514V20.62ZM213.794 20.62H214.594V19.82H213.794V20.62ZM213.794 21.4V22.2H214.594V21.4H213.794ZM211.514 21.4V20.6H210.714V21.4H211.514ZM211.514 25V25.8H212.314V25H211.514ZM210.634 25H209.834V25.8H210.634V25ZM210.634 21.4H211.434V20.6H210.634V21.4ZM210.654 11.92H211.454V9.57558L210.021 11.431L210.654 11.92ZM203.934 20.62L203.301 20.131L202.306 21.42H203.934V20.62ZM210.654 20.62V21.42H211.454V20.62H210.654ZM203.674 21.4V20.7H202.074V21.4H203.674ZM203.507 21.1892L211.127 11.3292L209.861 10.3508L202.241 20.2108L203.507 21.1892ZM210.494 11.64H211.514V10.04H210.494V11.64ZM210.714 10.84V20.62H212.314V10.84H210.714ZM211.514 21.42H213.794V19.82H211.514V21.42ZM212.994 20.62V21.4H214.594V20.62H212.994ZM213.794 20.6H211.514V22.2H213.794V20.6ZM210.714 21.4V25H212.314V21.4H210.714ZM211.514 24.2H210.634V25.8H211.514V24.2ZM211.434 25V21.4H209.834V25H211.434ZM210.634 20.6H202.874V22.2H210.634V20.6ZM210.021 11.431L203.301 20.131L204.567 21.109L211.287 12.409L210.021 11.431ZM203.934 21.42H210.654V19.82H203.934V21.42ZM211.454 20.62V11.92H209.854V20.62H211.454ZM215.23 24.84L214.664 25.4057L215.23 24.84ZM215.23 23.72L215.796 24.2857L215.23 23.72ZM216.33 23.72L215.764 24.2857L216.33 23.72ZM216.33 24.84L216.896 25.4057L216.33 24.84ZM215.79 24.26C215.776 24.26 215.769 24.2589 215.767 24.2586C215.765 24.2582 215.767 24.2585 215.772 24.2604C215.777 24.2624 215.783 24.2652 215.788 24.2686C215.793 24.2719 215.796 24.2743 215.796 24.2743L214.664 25.4057C214.976 25.717 215.373 25.86 215.79 25.86V24.26ZM215.796 24.2743C215.796 24.2743 215.798 24.2768 215.801 24.2818C215.805 24.2869 215.807 24.2924 215.809 24.2975C215.811 24.3024 215.812 24.3046 215.811 24.3027C215.811 24.3007 215.81 24.2935 215.81 24.28H214.21C214.21 24.6972 214.353 25.0943 214.664 25.4057L215.796 24.2743ZM215.81 24.28C215.81 24.2665 215.811 24.2593 215.811 24.2573C215.812 24.2554 215.811 24.2576 215.809 24.2625C215.807 24.2676 215.805 24.2731 215.801 24.2782C215.798 24.2832 215.796 24.2857 215.796 24.2857L214.664 23.1543C214.353 23.4657 214.21 23.8628 214.21 24.28H215.81ZM215.796 24.2857C215.796 24.2857 215.793 24.2881 215.788 24.2914C215.783 24.2948 215.777 24.2976 215.772 24.2996C215.767 24.3015 215.765 24.3018 215.767 24.3014C215.769 24.3011 215.776 24.3 215.79 24.3V22.7C215.373 22.7 214.976 22.843 214.664 23.1543L215.796 24.2857ZM215.79 24.3C215.797 24.3 215.799 24.3006 215.797 24.3002C215.795 24.2997 215.79 24.2985 215.783 24.2959C215.776 24.2932 215.771 24.2901 215.767 24.2873C215.763 24.2846 215.762 24.2835 215.764 24.2857L216.896 23.1543C216.594 22.8529 216.209 22.7 215.79 22.7V24.3ZM215.764 24.2857C215.764 24.2857 215.762 24.2832 215.758 24.2782C215.755 24.2731 215.752 24.2676 215.75 24.2625C215.748 24.2576 215.748 24.2554 215.748 24.2573C215.749 24.2593 215.75 24.2665 215.75 24.28H217.35C217.35 23.8628 217.207 23.4657 216.896 23.1543L215.764 24.2857ZM215.75 24.28C215.75 24.2935 215.749 24.3007 215.748 24.3027C215.748 24.3046 215.748 24.3024 215.75 24.2975C215.752 24.2924 215.755 24.2869 215.758 24.2818C215.762 24.2768 215.764 24.2743 215.764 24.2743L216.896 25.4057C217.207 25.0943 217.35 24.6972 217.35 24.28H215.75ZM215.764 24.2743C215.762 24.2765 215.763 24.2754 215.767 24.2727C215.771 24.2699 215.776 24.2668 215.783 24.2641C215.79 24.2615 215.795 24.2603 215.797 24.2598C215.799 24.2594 215.797 24.26 215.79 24.26V25.86C216.209 25.86 216.594 25.7071 216.896 25.4057L215.764 24.2743ZM217.918 21.4H217.118V22.2H217.918V21.4ZM217.918 20.7L217.285 20.2108L217.118 20.4269V20.7H217.918ZM225.538 10.84V10.04H225.145L224.905 10.3508L225.538 10.84ZM226.558 10.84H227.358V10.04H226.558V10.84ZM226.558 20.62H225.758V21.42H226.558V20.62ZM228.838 20.62H229.638V19.82H228.838V20.62ZM228.838 21.4V22.2H229.638V21.4H228.838ZM226.558 21.4V20.6H225.758V21.4H226.558ZM226.558 25V25.8H227.358V25H226.558ZM225.678 25H224.878V25.8H225.678V25ZM225.678 21.4H226.478V20.6H225.678V21.4ZM225.698 11.92H226.498V9.57558L225.065 11.431L225.698 11.92ZM218.978 20.62L218.345 20.131L217.349 21.42H218.978V20.62ZM225.698 20.62V21.42H226.498V20.62H225.698ZM218.718 21.4V20.7H217.118V21.4H218.718ZM218.551 21.1892L226.171 11.3292L224.905 10.3508L217.285 20.2108L218.551 21.1892ZM225.538 11.64H226.558V10.04H225.538V11.64ZM225.758 10.84V20.62H227.358V10.84H225.758ZM226.558 21.42H228.838V19.82H226.558V21.42ZM228.038 20.62V21.4H229.638V20.62H228.038ZM228.838 20.6H226.558V22.2H228.838V20.6ZM225.758 21.4V25H227.358V21.4H225.758ZM226.558 24.2H225.678V25.8H226.558V24.2ZM226.478 25V21.4H224.878V25H226.478ZM225.678 20.6H217.918V22.2H225.678V20.6ZM225.065 11.431L218.345 20.131L219.611 21.109L226.331 12.409L225.065 11.431ZM218.978 21.42H225.698V19.82H218.978V21.42ZM226.498 20.62V11.92H224.898V20.62H226.498ZM238.894 11.52L239.632 11.8269L239.694 11.6796V11.52H238.894ZM233.294 25V25.8H233.828L234.032 25.3069L233.294 25ZM232.374 25L231.637 24.6882L231.166 25.8H232.374V25ZM238.054 11.58L238.79 11.8918L239.261 10.78H238.054V11.58ZM229.694 11.58H228.894V12.38H229.694V11.58ZM229.694 10.8V10H228.894V10.8H229.694ZM238.894 10.8H239.694V10H238.894V10.8ZM238.155 11.2131L232.555 24.6931L234.032 25.3069L239.632 11.8269L238.155 11.2131ZM233.294 24.2H232.374V25.8H233.294V24.2ZM233.11 25.3118L238.79 11.8918L237.317 11.2682L231.637 24.6882L233.11 25.3118ZM238.054 10.78H229.694V12.38H238.054V10.78ZM230.494 11.58V10.8H228.894V11.58H230.494ZM229.694 11.6H238.894V10H229.694V11.6ZM238.094 10.8V11.52H239.694V10.8H238.094Z" fill="#454545"/>
<path d="M20.5914 5.16627L23.2311 10.4893C23.5911 11.2303 24.5509 11.941 25.361 12.0771L30.1454 12.8786C33.2051 13.3928 33.925 15.6309 31.7202 17.8387L28.0007 21.589C27.3707 22.2241 27.0258 23.449 27.2206 24.3262L28.2856 28.9687C29.1255 32.6434 27.1906 34.065 23.9661 32.1444L19.4815 29.4678C18.6717 28.9839 17.3368 28.9839 16.5118 29.4678L12.0274 32.1444C8.81775 34.065 6.86797 32.6283 7.70788 28.9687L8.77276 24.3262C8.96773 23.449 8.62278 22.2241 7.99284 21.589L4.27326 17.8387C2.0835 15.6309 2.78842 13.3928 5.84808 12.8786L10.6326 12.0771C11.4275 11.941 12.3874 11.2303 12.7473 10.4893L15.387 5.16627C16.8268 2.27791 19.1665 2.27791 20.5914 5.16627Z" fill="#FFBF00" stroke="#FFBF00" stroke-width="1.5" stroke-linecap="round" stroke-linejoin="round"/>
<path d="M96.5914 5.16627L99.2311 10.4893C99.5911 11.2303 100.551 11.941 101.361 12.0771L106.145 12.8786C109.205 13.3928 109.925 15.6309 107.72 17.8387L104.001 21.589C103.371 22.2241 103.026 23.449 103.221 24.3262L104.286 28.9687C105.125 32.6434 103.191 34.065 99.9661 32.1444L95.4815 29.4678C94.6717 28.9839 93.3368 28.9839 92.5118 29.4678L88.0274 32.1444C84.8177 34.065 82.868 32.6283 83.7079 28.9687L84.7728 24.3262C84.9677 23.449 84.6228 22.2241 83.9928 21.589L80.2733 17.8387C78.0835 15.6309 78.7884 13.3928 81.8481 12.8786L86.6326 12.0771C87.4275 11.941 88.3874 11.2303 88.7473 10.4893L91.387 5.16627C92.8268 2.27791 95.1665 2.27791 96.5914 5.16627Z" fill="#FFBF00" stroke="#FFBF00" stroke-width="1.5" stroke-linecap="round" stroke-linejoin="round"/>
<path d="M58.5914 5.16627L61.2311 10.4893C61.5911 11.2303 62.5509 11.941 63.361 12.0771L68.1454 12.8786C71.2051 13.3928 71.925 15.6309 69.7202 17.8387L66.0007 21.589C65.3707 22.2241 65.0258 23.449 65.2206 24.3262L66.2856 28.9687C67.1255 32.6434 65.1906 34.065 61.9661 32.1444L57.4815 29.4678C56.6717 28.9839 55.3368 28.9839 54.5118 29.4678L50.0274 32.1444C46.8177 34.065 44.868 32.6283 45.7079 28.9687L46.7728 24.3262C46.9677 23.449 46.6228 22.2241 45.9928 21.589L42.2733 17.8387C40.0835 15.6309 40.7884 13.3928 43.8481 12.8786L48.6326 12.0771C49.4275 11.941 50.3874 11.2303 50.7473 10.4893L53.387 5.16627C54.8268 2.27791 57.1665 2.27791 58.5914 5.16627Z" fill="#FFBF00" stroke="#FFBF00" stroke-width="1.5" stroke-linecap="round" stroke-linejoin="round"/>
<path d="M134.591 5.16627L137.231 10.4893C137.591 11.2303 138.551 11.941 139.361 12.0771L144.145 12.8786C147.205 13.3928 147.925 15.6309 145.72 17.8387L142.001 21.589C141.371 22.2241 141.026 23.449 141.221 24.3262L142.286 28.9687C143.125 32.6434 141.191 34.065 137.966 32.1444L133.482 29.4678C132.672 28.9839 131.337 28.9839 130.512 29.4678L126.027 32.1444C122.818 34.065 120.868 32.6283 121.708 28.9687L122.773 24.3262C122.968 23.449 122.623 22.2241 121.993 21.589L118.273 17.8387C116.083 15.6309 116.788 13.3928 119.848 12.8786L124.633 12.0771C125.427 11.941 126.387 11.2303 126.747 10.4893L129.387 5.16627C130.827 2.27791 133.167 2.27791 134.591 5.16627Z" fill="#FFBF00" stroke="#FFBF00" stroke-width="1.5" stroke-linecap="round" stroke-linejoin="round"/>
<path d="M172.591 5.16627L175.231 10.4893C175.591 11.2303 176.551 11.941 177.361 12.0771L182.145 12.8786C185.205 13.3928 185.925 15.6309 183.72 17.8387L180.001 21.589C179.371 22.2241 179.026 23.449 179.221 24.3262L180.286 28.9687C181.125 32.6434 179.191 34.065 175.966 32.1444L171.482 29.4678C170.672 28.9839 169.337 28.9839 168.512 29.4678L164.027 32.1444C160.818 34.065 158.868 32.6283 159.708 28.9687L160.773 24.3262C160.968 23.449 160.623 22.2241 159.993 21.589L156.273 17.8387C154.083 15.6309 154.788 13.3928 157.848 12.8786L162.633 12.0771C163.427 11.941 164.387 11.2303 164.747 10.4893L167.387 5.16627C168.827 2.27791 171.167 2.27791 172.591 5.16627Z" stroke="#FFBF00" stroke-width="1.5" stroke-linecap="round" stroke-linejoin="round"/>
</svg>
