<svg width="32" height="32" viewBox="0 0 32 32" fill="none" xmlns="http://www.w3.org/2000/svg">
<path d="M11.999 29.3333L11.6648 24.6548C11.4852 22.1395 13.4773 20 15.999 20C18.5207 20 20.5129 22.1395 20.3333 24.6548L19.999 29.3333" stroke="#DE8254" stroke-width="3"/>
<path d="M3.13527 17.618C2.66457 14.5549 2.42923 13.0235 3.00831 11.6658C3.58737 10.3082 4.87212 9.37924 7.4416 7.52142L9.3614 6.13334C12.5578 3.82223 14.1559 2.66667 16.0001 2.66667C17.8442 2.66667 19.4423 3.82223 22.6387 6.13334L24.5586 7.52142C27.1281 9.37924 28.4127 10.3082 28.9918 11.6658C29.5709 13.0235 29.3355 14.5549 28.8649 17.618L28.4636 20.2299C27.7962 24.5719 27.4626 26.7429 25.9054 28.0381C24.3482 29.3333 22.0717 29.3333 17.5185 29.3333H14.4817C9.92852 29.3333 7.65196 29.3333 6.09475 28.0381C4.53753 26.7429 4.20391 24.5719 3.53665 20.2299L3.13527 17.618Z" stroke="#EEEEEE" stroke-width="3" stroke-linejoin="round"/>
</svg>
