<svg width="32" height="32" viewBox="0 0 32 32" fill="none" xmlns="http://www.w3.org/2000/svg">
<path d="M11.9991 29.3333L11.6649 24.6548C11.4853 22.1395 13.4773 20 15.9991 20C18.5208 20 20.5129 22.1395 20.3333 24.6548L19.9991 29.3333" stroke="#DE8254" stroke-width="3"/>
<path d="M3.13518 17.618C2.66448 14.555 2.42914 13.0235 3.00822 11.6659C3.58728 10.3082 4.87203 9.37926 7.44151 7.52143L9.36131 6.13335C12.5577 3.82225 14.1559 2.66669 16 2.66669C17.8441 2.66669 19.4423 3.82225 22.6387 6.13335L24.5585 7.52143C27.128 9.37926 28.4127 10.3082 28.9917 11.6659C29.5708 13.0235 29.3355 14.555 28.8648 17.618L28.4635 20.2299C27.7961 24.5719 27.4625 26.743 25.9053 28.0382C24.3481 29.3334 22.0716 29.3334 17.5184 29.3334H14.4816C9.92843 29.3334 7.65187 29.3334 6.09466 28.0382C4.53744 26.743 4.20382 24.5719 3.53656 20.2299L3.13518 17.618Z" stroke="#454545" stroke-width="3" stroke-linejoin="round"/>
</svg>
