<svg width="270" height="417" viewBox="0 0 270 417" fill="none" xmlns="http://www.w3.org/2000/svg">
<path d="M57.9844 268.163C60.097 266.397 60.3768 263.254 58.6094 261.142C58.2465 260.709 57.9516 260.208 57.8866 259.646L55.5655 239.602C55.2439 236.825 52.5775 234.945 49.8535 235.576C47.3587 236.153 45.7891 238.626 46.3287 241.129L49.0356 253.687C50.0908 258.582 47.7393 265.431 51.7827 268.386C53.6531 269.753 56.2169 269.661 57.9844 268.163Z" fill="#FFB6B6"/>
<path d="M230.939 77.365L225.592 68.0852C221.548 61.067 219.527 57.558 216.086 56.1586C212.645 54.7594 208.754 55.8635 200.972 58.0718L187.753 61.7952C182.785 62.941 177.572 62.291 173.036 59.9602L169.387 57.8545C165.496 55.3629 162.504 51.6894 160.848 47.3713L157.231 36.5663C154.852 29.4161 153.662 25.841 150.83 23.7961C147.999 21.7512 144.238 21.7512 136.715 21.7512H124.638C117.117 21.7512 113.356 21.7512 110.524 23.7961C107.692 25.841 106.503 29.4161 104.124 36.5663L100.506 47.3713C98.8503 51.6894 95.8581 55.3629 91.9681 57.8545L88.3185 59.9602C83.7821 62.291 78.5696 62.941 73.6014 61.7952L60.3822 58.0718C52.6002 55.8635 48.7093 54.7594 45.2688 56.1586C41.8284 57.558 39.8064 61.067 35.7624 68.0852L30.4152 77.365C26.6246 83.9435 24.7292 87.2329 25.0971 90.7344C25.4648 94.236 28.0022 97.0577 33.0769 102.701L44.2465 115.189C46.9765 118.644 48.9147 124.668 48.9147 130.083C48.9147 135.501 46.9771 141.522 44.2468 144.979L33.0769 157.467C28.0022 163.111 25.465 165.932 25.0971 169.434C24.7292 172.936 26.6246 176.225 30.4152 182.803L35.7623 192.083C39.8062 199.1 41.8284 202.61 45.2688 204.009C48.7093 205.409 52.6003 204.305 60.3824 202.096L73.6009 198.372C78.5701 197.226 83.7835 197.877 88.3205 200.209L91.9695 202.315C95.8588 204.806 98.8502 208.479 100.506 212.797L104.124 223.603C106.503 230.753 107.692 234.328 110.524 236.374C113.356 238.418 117.117 238.418 124.638 238.418H136.715C144.238 238.418 147.999 238.418 150.83 236.374C153.662 234.328 154.852 230.753 157.231 223.603L160.849 212.797C162.504 208.479 165.495 204.806 169.386 202.315L173.034 200.209C177.571 197.877 182.784 197.226 187.753 198.372L200.972 202.096C208.754 204.305 212.645 205.409 216.086 204.009C219.527 202.61 221.548 199.1 225.592 192.083L230.939 182.803C234.73 176.225 236.625 172.936 236.258 169.434C235.889 165.932 233.352 163.111 228.278 157.467L217.107 144.979C214.377 141.522 212.439 135.501 212.439 130.083C212.439 124.668 214.379 118.644 217.107 115.189L228.278 102.701C233.352 97.0577 235.889 94.236 236.258 90.7344C236.625 87.2329 234.73 83.9435 230.939 77.365Z" stroke="#454545" stroke-width="8" stroke-linecap="round"/>
<path d="M168.128 130C168.128 150.941 151.152 167.917 130.211 167.917C109.27 167.917 92.2949 150.941 92.2949 130C92.2949 109.059 109.27 92.0833 130.211 92.0833C151.152 92.0833 168.128 109.059 168.128 130Z" stroke="#454545" stroke-width="8"/>
<path d="M246.494 240.971L244.56 237.616C243.098 235.078 242.367 233.81 241.123 233.304C239.88 232.798 238.473 233.197 235.659 233.995L230.88 235.341C229.084 235.756 227.199 235.521 225.559 234.678L224.24 233.917C222.833 233.016 221.752 231.688 221.153 230.127L219.845 226.22C218.985 223.635 218.555 222.343 217.531 221.603C216.508 220.864 215.148 220.864 212.428 220.864H208.062C205.342 220.864 203.983 220.864 202.959 221.603C201.935 222.343 201.505 223.635 200.645 226.22L199.337 230.127C198.738 231.688 197.657 233.016 196.25 233.917L194.931 234.678C193.291 235.521 191.406 235.756 189.61 235.341L184.831 233.995C182.017 233.197 180.61 232.798 179.367 233.304C178.123 233.81 177.392 235.078 175.93 237.616L173.996 240.971C172.626 243.349 171.941 244.538 172.074 245.804C172.207 247.07 173.124 248.09 174.959 250.131L178.997 254.645C179.984 255.895 180.685 258.072 180.685 260.03C180.685 261.989 179.984 264.166 178.997 265.416L174.959 269.93C173.124 271.971 172.207 272.991 172.074 274.257C171.941 275.523 172.626 276.712 173.996 279.09L175.93 282.445C177.392 284.983 178.123 286.252 179.367 286.757C180.61 287.263 182.017 286.864 184.831 286.066L189.61 284.719C191.406 284.305 193.291 284.54 194.931 285.383L196.251 286.145C197.657 287.045 198.738 288.373 199.337 289.934L200.645 293.841C201.505 296.426 201.935 297.719 202.959 298.458C203.983 299.197 205.342 299.197 208.062 299.197H212.428C215.148 299.197 216.508 299.197 217.531 298.458C218.555 297.719 218.985 296.426 219.845 293.841L221.153 289.934C221.752 288.373 222.833 287.045 224.24 286.145L225.559 285.383C227.199 284.54 229.084 284.305 230.88 284.719L235.659 286.066C238.473 286.864 239.88 287.263 241.123 286.757C242.367 286.252 243.098 284.983 244.56 282.445L246.494 279.09C247.864 276.712 248.549 275.523 248.416 274.257C248.283 272.991 247.366 271.971 245.531 269.93L241.493 265.416C240.506 264.166 239.805 261.989 239.805 260.03C239.805 258.072 240.506 255.895 241.493 254.645L245.531 250.131C247.366 248.09 248.283 247.07 248.416 245.804C248.549 244.538 247.864 243.349 246.494 240.971Z" stroke="#454545" stroke-width="5" stroke-linecap="round"/>
<path d="M223.785 260C223.785 267.571 217.647 273.708 210.076 273.708C202.505 273.708 196.368 267.571 196.368 260C196.368 252.429 202.505 246.292 210.076 246.292C217.647 246.292 223.785 252.429 223.785 260Z" stroke="#454545" stroke-width="5"/>
<path d="M55.0679 230.684C55.9744 235.45 54.1555 240.422 50.0387 242.989C47.3885 244.641 45.0234 245.639 44.6994 242.533C44.611 241.686 44.5204 240.665 44.4285 239.438C44.3487 238.372 45.093 236.515 45.0112 235.421C44.9189 234.186 41.3809 233.625 41.2877 232.376C41.2214 231.487 42.2442 230.696 42.1781 229.809C42.0781 228.466 41.9787 227.13 41.8811 225.816C41.7995 224.717 40.5811 224.02 40.5025 222.959C40.4233 221.889 41.484 220.455 41.4093 219.441C40.888 212.372 42.5274 195.339 42.7601 192.67C42.7808 192.433 42.7728 192.203 42.7214 191.969C42.6309 191.559 42.4941 191.16 42.3144 190.782C41.9589 190.034 41.7647 189.184 42.0275 188.399C42.1405 188.061 42.1774 187.703 42.1357 187.349L41.8065 184.557C41.315 180.389 42.1272 176.176 44.1233 172.495C44.3185 172.135 44.607 171.835 44.9497 171.611C46.2055 170.789 47.8931 171.179 48.6604 172.469L56.4605 185.581C58.9008 189.683 59.5227 194.616 58.1653 199.192C54.6884 210.912 52.7276 218.38 55.0679 230.684Z" fill="#DE8254"/>
<path d="M48.3137 398.428C48.3137 400.4 49.9124 401.999 51.8844 401.999C53.6872 401.999 55.2072 400.655 55.4282 398.865L57.5976 381.295C57.9407 378.516 55.7731 376.064 52.9732 376.064C50.3998 376.064 48.3137 378.15 48.3137 380.724V398.428Z" fill="#FFB6B6"/>
<path d="M45.7164 402.216C45.9471 399.448 48.1768 397.27 50.9493 397.105L53.7927 396.935C55.46 396.836 56.8667 398.161 56.8667 399.832C56.8667 400.785 57.3352 401.678 58.12 402.219L67.0854 408.407C68.3927 409.31 68.7208 411.1 67.8182 412.406C67.2811 413.184 66.3962 413.648 65.4509 413.648H53.5223C52.9917 413.648 52.5077 413.345 52.2764 412.867L52.0351 412.369C51.5301 411.327 49.9882 411.532 49.7729 412.67C49.6656 413.237 49.1698 413.648 48.5922 413.648H47.5008C46.0271 413.648 44.8682 412.388 44.9907 410.92L45.7164 402.216Z" fill="#4A5549"/>
<path d="M86.1047 398.428C86.1047 400.4 87.7034 401.999 89.6754 401.999C91.4782 401.999 92.9982 400.655 93.2191 398.865L95.388 381.294C95.731 378.516 93.5635 376.064 90.7639 376.064C88.1907 376.064 86.1047 378.15 86.1047 380.723V398.428Z" fill="#FFB6B6"/>
<path d="M83.5066 402.216C83.7374 399.448 85.9671 397.27 88.7396 397.105L91.5829 396.935C93.2502 396.836 94.657 398.161 94.657 399.832C94.657 400.785 95.1255 401.678 95.9102 402.219L104.876 408.407C106.183 409.31 106.511 411.1 105.608 412.406C105.071 413.184 104.186 413.648 103.241 413.648H91.3125C90.7819 413.648 90.298 413.345 90.0666 412.867L89.8253 412.369C89.3204 411.327 87.7785 411.532 87.5632 412.67C87.4559 413.237 86.96 413.648 86.3825 413.648H85.2911C83.8174 413.648 82.6585 412.388 82.7809 410.92L83.5066 402.216Z" fill="#4A5549"/>
<path d="M45.4583 379.634C45.4728 379.634 45.4847 379.622 45.485 379.608L46.6448 324.247C46.7324 320.064 45.1776 315.859 45.5954 311.696C45.7427 310.227 46.1857 308.782 46.9231 307.452C47.0425 307.236 47.0796 306.984 47.0275 306.743L46.628 304.892C46.344 303.576 46.2507 302.234 46.3445 300.906C46.5632 297.811 47.4873 294.771 47.5824 291.67L48.5748 259.331C48.6218 257.799 48.51 256.263 48.3444 254.739C46.5598 238.311 53.2702 225.463 58.6744 218.029C62.2675 213.086 68.2583 210.882 74.3689 210.882H76.9124C88.0272 210.882 97.8073 218.22 100.915 228.892L101.645 231.398C102.067 232.847 102.358 234.32 102.504 235.822C106.612 278.173 105.738 337.666 98.958 377.132C98.9367 377.256 98.9992 377.376 99.1115 377.433C99.8563 377.848 100.143 378.775 99.7638 379.538C99.2369 381.063 97.1314 380.764 95.5186 380.708L84.1236 380.312C82.526 380.256 80.3285 379.553 81.0406 378.122C81.361 377.195 82.1725 376.633 82.8531 376.868C83.2082 377.047 83.5877 376.672 83.4122 376.315L82.818 375.106C81.7972 373.029 81.6652 370.667 82.3806 368.536C82.9027 366.981 83.4882 365.4 83.4241 363.76C83.3588 362.089 82.6117 360.533 81.9991 358.977C81.3632 357.362 81.2767 355.555 81.7999 353.848C82.5258 351.48 82.8472 349.007 82.7504 346.532L81.601 317.142L81.8627 309.71L81.3237 301.278C80.9357 295.373 72.4698 294.805 71.2967 300.605L69.3985 309.99L60.0163 378.26C59.8578 379.413 60.5553 380.658 60.3051 381.794C60.1004 382.626 59.3463 383.205 58.4895 383.188H45.4113C44.4273 383.187 43.6304 382.389 43.6313 381.406C43.6315 381.246 43.6531 381.087 43.6955 380.934C43.9224 380.153 44.6446 379.62 45.4583 379.634Z" fill="#6C756B"/>
<path d="M120.272 258.011C122.01 255.875 121.687 252.736 119.55 250.999C119.112 250.642 118.727 250.206 118.556 249.667L112.466 230.428C111.623 227.763 108.648 226.424 106.094 227.56C103.754 228.601 102.683 231.327 103.689 233.683L108.734 245.497C110.7 250.103 109.694 257.274 114.225 259.407C116.321 260.394 118.821 259.817 120.272 258.011Z" fill="#FFB6B6"/>
<path d="M91.1013 172.245C88.8685 176.109 88.2938 180.702 89.4746 185.006C92.1015 194.581 96.5418 211.256 96.252 213.542C95.4463 219.898 57.6367 238.812 51.3965 232.689C50.7835 232.087 50.7676 231.148 50.8777 230.297C51.0214 229.186 50.7992 228.006 51.0148 226.907C51.9043 222.37 59.1326 212.854 59.5342 211.447C59.5839 211.272 59.6104 211.062 59.6172 210.826C59.7772 205.272 58.7553 199.701 59.0189 194.15C59.0464 193.572 59.0452 193.015 59.0059 192.501C58.7064 188.653 57.8187 189.246 54.5619 186.873C53.2678 185.932 51.6459 183.636 50.1612 181.21C47.2108 176.389 46.7038 170.561 47.736 165.004C48.0831 163.135 48.3425 161.51 48.3425 160.823C48.3425 159.151 54.671 156.53 57.7412 154.959C58.7968 154.419 59.6556 153.582 60.2062 152.532C60.3282 152.299 60.4419 152.062 60.5471 151.821C60.7868 151.342 60.6343 150.232 60.8903 149.682C61.0537 149.323 61.6255 149.546 61.7944 149.176C61.9577 148.817 61.8161 148.403 61.9795 148.049C62.1919 147.581 62.7038 147.173 62.9053 146.732C63.8312 144.707 64.6209 143.058 64.8659 143.058C65.2422 143.058 73.1397 144.15 78.7806 144.936C82.3635 145.436 85.4381 147.581 87.9683 150.166C93.2869 155.468 96.6141 162.703 92.8573 169.205L91.1013 172.245Z" fill="#DE8254"/>
<path d="M113.215 232.156C111.734 233.636 104.403 240.433 104.104 238.653C103.81 236.879 103.65 236.667 102.462 236.079C101.275 235.486 101.275 235.192 100.981 233.118C100.687 231.045 98.0184 228.971 98.318 228.084C98.6121 227.197 98.3375 228.325 98.3375 227.432C98.3375 226.545 97.4498 223.291 96.2626 222.697C95.0808 222.104 93.2999 221.516 94.1931 220.036C94.8576 218.927 89.8429 193.762 87.2791 181.177C86.3508 176.62 86.9839 171.883 89.0951 167.74L92.5174 161.023C93.5217 159.052 95.4551 157.722 97.6553 157.49C99.0194 157.346 100.317 157.797 100.759 159.096C101.231 160.485 101.746 162.899 101.999 167.06C102.026 167.506 102.513 168.325 102.533 168.813C102.551 169.218 102.103 169.285 102.115 169.719C102.118 169.812 102.12 169.906 102.123 170C102.134 170.432 103.301 170.75 103.319 171.167C103.35 171.912 103.809 176.664 103.858 177.362C103.914 178.149 103.979 178.908 104.055 179.637C104.874 187.579 105.167 188.25 105.674 190.785C106.259 193.706 108.212 207.15 109.172 213.832C109.502 216.127 112.083 217.968 112.083 220.286C112.083 222.36 114.696 226.528 113.514 228.895C112.327 231.268 114.696 230.675 113.215 232.156Z" fill="#DE8254"/>
<path d="M72.8965 142.45C80.6561 142.45 86.9465 136.163 86.9465 128.409C86.9465 120.654 80.6561 114.367 72.8965 114.367C65.1369 114.367 58.8464 120.654 58.8464 128.409C58.8464 136.163 65.1369 142.45 72.8965 142.45Z" fill="#FFB8B8"/>
<path d="M35.7404 159.399C37.7045 158.975 37.8814 156.239 35.988 155.567C34.8038 155.146 34.3 153.729 35.2087 152.861C35.3452 152.73 35.486 152.604 35.6308 152.482C38.4616 150.12 42.3689 149.693 45.9629 148.896C49.5627 148.099 53.47 146.465 54.7857 143.027C56.1527 139.452 54.1706 135.593 53.02 131.95C51.3207 126.84 51.527 121.288 53.601 116.319C55.7485 111.343 60.0927 107.652 65.3514 106.334C66.3862 106.105 67.4478 105.995 68.5097 106C76.186 106.038 87.1707 109.195 90.2478 116.228C91.0713 118.102 90.9442 120.258 89.906 122.022C88.9504 123.467 87.0587 124.305 85.41 123.916C84.9495 123.808 84.7634 123.294 84.9369 122.853C85.2257 122.121 84.5665 121.514 83.9952 122.056C81.7696 124.168 80.458 128.508 80.8098 131.238C81.237 134.591 83.1964 137.528 85.1842 140.266C87.1721 143.004 89.2909 145.771 90.1452 149.044C91.3755 153.752 89.7124 158.898 86.6366 162.672C83.5609 166.446 79.2264 169.007 74.7381 170.891C71.8552 172.103 68.8753 173.066 65.8307 173.773C65.2217 173.914 64.7378 173.278 65.0227 172.721C65.3653 172.052 64.6138 171.352 63.9706 171.741L59.111 174.679C58.8096 174.861 58.4713 174.974 58.1204 175.005C56.8317 175.118 55.5353 175.187 54.2389 175.212C49.9443 175.286 45.5643 174.836 41.6341 173.123C37.6983 171.404 34.241 168.29 32.817 164.243C32.5747 163.548 32.4001 162.833 32.2948 162.107C32.1308 160.977 32.9651 159.997 34.0813 159.757C34.6343 159.637 35.1873 159.518 35.7404 159.399Z" fill="#2F2E41"/>
<path d="M268.549 415.869L20.9301 416.11C20.4137 416.107 19.9973 415.687 20 415.171C20.0027 414.658 20.4175 414.244 20.9301 414.241L268.549 414C269.065 414.003 269.482 414.423 269.479 414.939C269.476 415.451 269.062 415.866 268.549 415.869Z" fill="#CACACA"/>
</svg>
