<svg width="311" height="265" viewBox="0 0 311 265" fill="none" xmlns="http://www.w3.org/2000/svg">
<path d="M0.192871 263.685H81.402V261.19C81.402 259.024 80.5425 256.947 79.0125 255.415C77.4825 253.884 75.4074 253.023 73.2437 253.023H8.35123C6.1875 253.023 4.11238 253.884 2.58239 255.415C1.0524 256.947 0.192871 259.024 0.192871 261.19L0.192871 263.685Z" fill="#E6E6E6"/>
<path d="M43.0281 254L40.581 253.072C66.1866 193.231 63.7198 117.738 42.0747 52.9773C39.5035 45.4739 39.3181 37.4265 41.5412 29.8251C43.7643 22.2238 48.299 15.4001 54.5873 10.1936C67.1508 -0.362188 84.4714 -2.93366 99.7925 3.48197C114.916 9.81573 117 20.8482 117 31.827H114.362C114.362 20.1077 111.702 11.1885 98.72 5.75172C84.3606 -0.260906 68.1235 2.15076 56.3443 12.0473C50.4378 16.9373 46.1785 23.3463 44.0904 30.4858C42.0023 37.6253 42.1764 45.1838 44.5914 52.2313C66.4864 117.739 68.8086 193.752 43.0281 254Z" fill="#E6E6E6"/>
<path d="M115.5 68C110.253 68 106 64.1944 106 59.5C106 54.8056 110.253 51 115.5 51C120.747 51 125 54.8056 125 59.5C125 64.1944 120.747 68 115.5 68Z" fill="#E6E6E6"/>
<path d="M129.813 74.4342V58H127.187V74.4342C126.435 74.7307 125.811 75.273 125.424 75.968C125.036 76.663 124.909 77.4675 125.064 78.2436C125.22 79.0198 125.647 79.7192 126.274 80.2221C126.901 80.725 127.688 81 128.5 81C129.312 81 130.099 80.725 130.726 80.2221C131.353 79.7192 131.78 79.0198 131.936 78.2436C132.091 77.4675 131.964 76.663 131.576 75.968C131.189 75.273 130.565 74.7307 129.813 74.4342Z" fill="#E6E6E6"/>
<path d="M143 45.5C142.995 41.6557 141.378 37.9701 138.504 35.2518C135.629 32.5334 131.732 31.0044 127.667 31H102.333C98.2667 31 94.3666 32.5277 91.4911 35.247C88.6155 37.9662 87 41.6544 87 45.5C87 49.3456 88.6155 53.0338 91.4911 55.753C94.3666 58.4723 98.2667 60 102.333 60H127.667C131.732 59.9956 135.629 58.4666 138.504 55.7482C141.378 53.0299 142.995 49.3443 143 45.5Z" fill="#DE8254"/>
<path d="M178.614 125.044C176.074 92.5192 163.089 77.0227 171.403 67.3048C179.368 57.9961 201.802 59.919 216.209 68.8513C255.07 92.9439 269.307 188.968 219.299 235.883C171.78 280.464 81.7205 266.185 61.7063 229.696C57.0364 221.182 53.3266 206.257 60.1613 197.218C77.1298 174.777 138.824 215.424 166.253 190.001C182.509 174.934 180.007 142.893 178.614 125.044Z" fill="#454545"/>
<path d="M148.908 108.885C149.852 109.32 150.589 110.106 150.963 111.077C151.337 112.047 151.317 113.125 150.909 114.081C150.823 114.274 150.721 114.46 150.605 114.636L158.946 125.785L154.784 132.011L145.007 115.503C144.314 114.962 143.82 114.207 143.601 113.356C143.382 112.504 143.451 111.604 143.797 110.796C143.998 110.338 144.287 109.924 144.648 109.578C145.009 109.232 145.435 108.96 145.901 108.779C146.367 108.598 146.864 108.51 147.363 108.521C147.863 108.531 148.356 108.641 148.813 108.842C148.845 108.856 148.877 108.871 148.908 108.885Z" fill="#FFB6B6"/>
<path d="M148.915 128.107C148.369 128.591 149.883 129.189 151.485 128.246C151.943 127.973 152.139 127.859 152.19 127.931C152.319 128.112 151.567 129.442 151.768 132.396C151.892 134.159 154.817 137.474 158.139 140.706C162.63 145.078 167.852 149.295 167.852 149.295L169.685 147.826L188.911 132.396L192.155 127.901C191.858 126.125 191.412 124.378 190.821 122.678C190.008 120.325 189.041 118.028 187.927 115.801C187.33 114.59 186.717 113.435 186.13 112.373L175.829 123.735L167.198 133.252C167.198 133.252 164.685 129.2 162.738 128.096C162.49 127.938 162.207 127.841 161.914 127.813C159.947 127.72 159.828 126.648 162.11 124.312C164.391 121.977 161.512 124.158 159.483 123.529C157.454 122.9 159.483 123.529 159.056 121.956C158.628 120.384 152.937 117.229 152.937 117.229L152.7 117.44L148.4 121.24L147.169 122.328C147.169 122.328 148.513 126.019 148.884 126.797C149.255 127.576 149.456 127.617 148.915 128.107Z" fill="#DE8254"/>
<path d="M35.5525 199.722L35.343 194.035L57.1543 190.52L57.4639 198.912L35.5525 199.722Z" fill="#FFB6B6"/>
<path d="M39.5119 201.434L39.7188 192.329L35.8304 192.473L29.553 184.056C29.243 183.64 28.8084 183.334 28.3125 183.183C27.8167 183.032 27.2857 183.044 26.7969 183.217C26.3081 183.389 25.8873 183.713 25.5958 184.142C25.3042 184.571 25.1573 185.082 25.1765 185.601L25.5751 196.416L29.49 198.139L25.6707 199.008L25.821 203.086L39.5119 201.434Z" fill="#4A5549"/>
<path d="M158.31 201.936L89.225 203.689C89.225 203.689 59.3917 205.414 52.3922 200.856L45.0109 199.923L44.6108 189.07C44.6108 189.07 49.1245 189.103 51.7196 187.893C54.3146 186.682 52.5111 185.201 54.9853 186.658C57.4596 188.114 57.1982 188.289 59.1112 187.62C61.0242 186.951 148.749 173.566 148.749 173.566L158.31 201.936Z" fill="#6C756B"/>
<path d="M67.2743 197.226L63.2568 193.2L76.8583 175.773L82.7874 181.715L67.2743 197.226Z" fill="#FFB6B6"/>
<path d="M71.3398 193.723L65.3054 186.908L62.5525 189.661L52.2318 187.764C51.722 187.67 51.1957 187.742 50.7296 187.969C50.2636 188.196 49.8821 188.566 49.6411 189.025C49.4 189.484 49.3119 190.009 49.3896 190.522C49.4673 191.034 49.7068 191.509 50.0731 191.876L57.7139 199.534L61.754 198.131L59.5451 201.369L62.426 204.256L71.3398 193.723Z" fill="#4A5549"/>
<path d="M185.566 164.062L184.879 180.043C184.071 198.857 163.373 210.243 147.323 200.42C147.027 200.239 146.73 200.052 146.433 199.858C146.433 199.858 140.348 198.222 140.533 195.632C140.717 193.042 139.231 191.781 137.916 192.487C136.6 193.194 119.377 168.726 119.377 168.726C119.377 168.726 83.5936 186.594 75.6994 190.8C75.6994 190.8 68.2774 179.184 68.8155 179.305C69.3536 179.427 113.084 148.789 113.084 148.789C113.084 148.789 120.208 141.571 129.046 146.337C129.23 147.037 129.073 147.061 129.073 147.061L158.266 170.873L162.39 163.031L185.566 164.062Z" fill="#6C756B"/>
<path d="M158.041 144.083C158.097 144.821 158.202 145.555 158.355 146.279C158.566 147.327 158.905 148.346 159.365 149.31C159.365 149.31 159.365 150.388 161.425 153.997C163.485 157.605 160.91 156.059 159.365 158.74C157.82 161.415 159.365 160.183 161.08 161.905C161.573 162.406 161.924 163.03 162.095 163.713C162.266 164.396 162.252 165.112 162.053 165.787C162.053 165.787 184.178 165.802 188.298 164.256C192.418 162.709 193.355 153.997 189.663 153.136C185.975 152.275 190.78 151.419 192.949 149.434C195.117 147.449 190.78 144.202 190.78 144.202C190.78 144.202 192.567 141.114 192.418 130.746C192.397 129.793 192.309 128.842 192.155 127.901C191.858 126.125 191.412 124.378 190.822 122.678C190.008 120.325 189.041 118.028 187.927 115.801C187.33 114.59 186.717 113.435 186.13 112.373C186.037 112.208 185.95 112.048 185.857 111.888C184.739 109.909 183.72 108.29 183.045 107.254C182.525 106.449 182.211 105.996 182.211 105.996L178.461 99.4692L165.947 105.341L166.657 114.945L164.499 122.189L163.505 125.524L162.738 128.096L161.554 132.082C161.554 132.082 161.878 132.097 161.492 132.628C159.713 134.995 158.56 137.774 158.139 140.706C157.991 141.826 157.958 142.957 158.041 144.083Z" fill="#DE8254"/>
<path d="M121.9 145.118L122.135 145.042L152.088 135.387L141.051 99.1391C140.831 98.4173 140.45 97.7548 139.938 97.2017C139.425 96.6485 138.793 96.2191 138.091 95.9458C137.388 95.6724 136.633 95.5623 135.881 95.6237C135.13 95.6851 134.402 95.9165 133.753 96.3003L114.612 107.621C113.097 108.516 111.944 109.916 111.355 111.575C110.766 113.235 110.778 115.049 111.39 116.7L121.9 145.118Z" fill="#454545"/>
<path d="M121.778 147.422L151.973 137.689L140.935 101.442C140.715 100.72 140.335 100.057 139.822 99.5043C139.309 98.9511 138.678 98.5217 137.975 98.2484C137.273 97.975 136.517 97.8649 135.766 97.9263C135.014 97.9877 134.287 98.2191 133.638 98.6029L113.582 108.626C110.569 110.407 110.64 115.018 112.039 118.801L121.778 147.422Z" fill="#DE8254"/>
<path d="M124.801 150.046C125.497 150.439 126.266 150.682 127.06 150.761C127.855 150.84 128.657 150.753 129.416 150.505L148.715 144.284C150.196 143.8 151.429 142.755 152.151 141.373C152.872 139.991 153.026 138.382 152.578 136.888L142.902 105.113C142.709 104.478 142.391 103.888 141.967 103.378C141.542 102.868 141.021 102.447 140.432 102.142C139.844 101.836 139.2 101.651 138.54 101.597C137.879 101.544 137.214 101.623 136.584 101.83L116.584 108.404C115.631 108.717 114.75 109.218 113.994 109.877C113.238 110.537 112.621 111.342 112.181 112.244C111.74 113.146 111.485 114.127 111.43 115.129C111.375 116.132 111.521 117.135 111.859 118.08L122.205 146.952C122.67 148.263 123.592 149.362 124.801 150.046Z" fill="#454545"/>
<path d="M166.654 99.5806C159.02 99.5806 152.831 93.3855 152.831 85.7434C152.831 78.1013 159.02 71.9061 166.654 71.9061C174.288 71.9061 180.477 78.1013 180.477 85.7434C180.477 93.3855 174.288 99.5806 166.654 99.5806Z" fill="#FFB6B6"/>
<path d="M213.398 99.789C212.13 102.25 210.05 104.197 207.511 105.298C206.498 105.76 205.432 106.098 204.338 106.303C204.029 105.075 203.534 103.902 202.87 102.824C203.091 104.039 203.091 105.284 202.87 106.499C201.203 106.636 199.526 106.427 197.943 105.887C196.388 105.358 194.978 104.473 193.825 103.303C192.671 102.133 191.806 100.71 191.297 99.1472C190.196 95.4794 191.382 91.5619 191.475 87.7334C191.572 83.9045 189.755 79.325 185.958 78.8512C183.066 78.4899 183.424 78.7704 181.346 80.8154C184.253 84.0473 177.167 98.3618 173.365 97.7293C171.215 97.3717 169.633 95.6633 169.208 95.7226C167.031 101.06 173.58 108.629 168.386 111.113L168.771 110.603C171.49 106.107 163.445 98.5136 166.164 94.0177C166.922 92.76 167.71 91.2854 167.241 89.8941C166.796 88.5713 164.542 88.1526 164.067 89.3566C164.84 86.5971 162.682 83.358 159.815 83.0764C157.269 82.8249 157.416 83.5515 154.988 84.2143C154.678 83.1674 154.231 82.166 153.658 81.2363C153.852 82.297 153.876 83.3818 153.729 84.4501C152.853 84.5546 151.968 84.367 151.209 83.9162C148.967 82.5707 148.901 79.0978 150.441 76.9841C151.984 74.8701 154.568 73.8262 157.062 73.0364C157.085 67.7579 171.274 65.231 173.883 70.1385C174.152 66.165 178.702 63.4883 182.622 64.1633C186.542 64.8383 189.634 67.9845 191.519 71.4914C193.404 74.9954 194.34 78.919 195.72 82.6514C197.1 86.3839 199.073 90.1056 202.377 92.3201C205.681 94.5318 210.591 94.7327 213.35 91.866C213.979 93.09 214.311 94.4452 214.32 95.8218C214.328 97.1983 214.012 98.5574 213.398 99.789Z" fill="#2F2E41"/>
<path d="M199.214 163.066C198.928 162.837 198.618 162.64 198.289 162.479C192.998 159.843 176.544 153.001 163.678 153.282C138.924 153.822 107.421 181.169 114.752 199.534C120.331 213.508 148.067 221.458 168.313 215.099C196.677 206.191 207.872 169.976 199.214 163.066Z" fill="#454545"/>
<path d="M301.98 263.737C310.069 262.21 317.229 225.732 301.315 207.766C295.862 201.611 289.061 198.932 280.014 196.439C227.942 182.089 188.227 195.765 182.89 199.104C177.564 202.436 168.229 252.634 180.167 259.739C186.883 263.737 200.196 265.736 206.793 261.072C216.498 254.209 200.207 236.407 207.458 224.424C215.687 210.827 259.016 206.246 280.74 219.76C303.917 234.178 256.111 272.399 301.98 263.737Z" fill="#F2F2F2"/>
<path d="M247.829 201.986H278.731C286.359 194.667 291.813 187.614 287.446 181.76C287.446 180.077 286.779 178.463 285.59 177.273C284.401 176.083 282.789 175.415 281.108 175.415H245.451C243.77 175.415 242.158 176.083 240.969 177.273C239.78 178.463 239.113 180.077 239.113 181.76C237.45 188.431 240.42 195.174 247.829 201.986Z" fill="#373434"/>
<path d="M253.45 167.158C253.743 167.172 254.033 167.095 254.281 166.937C254.529 166.78 254.723 166.551 254.836 166.28C254.949 166.008 254.977 165.709 254.914 165.422C254.852 165.135 254.703 164.874 254.487 164.675L254.389 164.284C254.402 164.253 254.415 164.222 254.428 164.191C254.723 163.492 255.218 162.897 255.851 162.479C256.483 162.061 257.225 161.84 257.982 161.843C258.74 161.846 259.48 162.072 260.109 162.495C260.738 162.917 261.229 163.516 261.519 164.217C262.679 167.013 264.155 169.814 264.519 172.77C264.679 174.077 264.612 175.402 264.319 176.685C267.043 170.737 268.458 164.273 268.467 157.729C268.468 156.087 268.376 154.447 268.194 152.815C268.043 151.477 267.834 150.149 267.567 148.83C266.107 141.676 262.972 134.969 258.42 129.263C256.217 128.059 254.435 126.209 253.315 123.961C252.909 123.153 252.622 122.29 252.463 121.4C252.712 121.432 253.4 117.644 253.213 117.411C253.559 116.885 254.179 116.623 254.558 116.11C256.439 113.557 259.031 114.003 260.384 117.472C263.274 118.933 263.302 121.354 261.529 123.684C260.4 125.165 260.245 127.17 259.255 128.757C259.357 128.887 259.463 129.014 259.565 129.144C261.427 131.541 263.05 134.115 264.41 136.828C264.079 133.788 264.474 130.713 265.562 127.856C266.665 125.193 268.732 122.95 270.552 120.648C272.738 117.883 277.222 119.089 277.607 122.595C277.61 122.629 277.614 122.663 277.618 122.697C277.347 122.849 277.083 123.011 276.824 123.183C276.498 123.4 276.246 123.711 276.101 124.075C275.955 124.438 275.922 124.837 276.007 125.219C276.091 125.602 276.289 125.949 276.575 126.217C276.86 126.485 277.22 126.66 277.607 126.72L277.646 126.726C277.55 127.701 277.38 128.668 277.137 129.618C279.472 138.657 274.431 141.949 267.232 142.097C267.074 142.179 266.919 142.26 266.76 142.338C268.127 146.215 268.984 150.254 269.31 154.353C269.495 156.771 269.484 159.2 269.278 161.616L269.29 161.53C269.811 158.843 271.243 156.419 273.344 154.667C276.463 152.101 280.871 151.157 284.237 149.095C284.594 148.865 285.01 148.742 285.435 148.741C285.86 148.74 286.277 148.861 286.635 149.089C286.994 149.317 287.28 149.643 287.46 150.029C287.64 150.414 287.706 150.843 287.65 151.265C287.645 151.295 287.641 151.325 287.636 151.355C287.134 151.56 286.646 151.795 286.173 152.06C285.903 152.213 285.638 152.375 285.38 152.547C285.054 152.764 284.802 153.075 284.656 153.438C284.511 153.802 284.478 154.201 284.562 154.583C284.647 154.966 284.845 155.313 285.131 155.581C285.416 155.849 285.776 156.024 286.162 156.084L286.202 156.09C286.231 156.094 286.255 156.098 286.283 156.102C285.426 158.151 284.223 160.037 282.727 161.677C281.267 169.568 274.996 170.317 268.288 168.019H268.284C267.548 171.22 266.481 174.337 265.102 177.317H253.735C253.694 177.191 253.657 177.061 253.62 176.934C254.673 177 255.729 176.937 256.766 176.747C255.922 175.711 255.079 174.667 254.236 173.631C254.217 173.611 254.199 173.591 254.183 173.57C253.755 173.039 253.323 172.513 252.895 171.983L252.895 171.982C252.872 170.357 253.059 168.736 253.45 167.158Z" fill="#CCCCCC"/>
<path d="M214.607 200.328C214.419 200.878 214.061 201.353 213.586 201.686C213.111 202.02 212.542 202.194 211.962 202.183L200.625 201.891C200.041 201.88 199.475 201.679 199.014 201.32C198.553 200.96 198.22 200.461 198.066 199.896L196.462 182.725C195.892 182.983 195.273 183.11 194.648 183.098C193.552 183.07 192.512 182.608 191.756 181.813C191 181.017 190.591 179.954 190.619 178.857C190.646 177.76 191.108 176.718 191.903 175.962C192.697 175.206 193.759 174.796 194.856 174.824C195.105 174.823 195.354 174.849 195.599 174.901C195.864 174.613 196.187 174.385 196.546 174.229C196.905 174.074 197.293 173.996 197.684 174L215.122 174.451C215.267 174.456 215.411 174.474 215.552 174.504C215.935 174.576 216.298 174.728 216.616 174.952C216.935 175.175 217.202 175.464 217.399 175.8C217.597 176.135 217.72 176.509 217.762 176.896C217.803 177.283 217.761 177.675 217.638 178.045L214.607 200.328ZM196.133 181.559L194.991 177.467C194.861 176.994 194.858 176.496 194.982 176.022C194.927 176.021 194.878 175.995 194.823 175.995C194.04 175.979 193.283 176.274 192.718 176.816C192.152 177.358 191.824 178.102 191.806 178.885C191.788 179.669 192.08 180.427 192.62 180.995C193.159 181.563 193.902 181.893 194.684 181.914C195.19 181.929 195.691 181.807 196.133 181.559Z" fill="#373434"/>
<path d="M215.624 174.236C215.252 176.362 211.075 177.857 206.053 177.597C201.434 177.384 197.658 175.761 196.966 173.837C197.222 173.761 197.489 173.726 197.756 173.732L215.194 174.182C215.338 174.188 215.482 174.206 215.624 174.236Z" fill="white"/>
<path d="M132.261 128.72C133.299 128.758 134.282 129.2 135 129.952C135.717 130.704 136.113 131.706 136.104 132.746C136.099 132.957 136.076 133.168 136.036 133.376L148.018 140.457L146.568 147.807L131.202 136.33C130.354 136.098 129.608 135.591 129.079 134.889C128.55 134.187 128.267 133.33 128.276 132.451C128.286 131.95 128.394 131.457 128.595 130.999C128.795 130.54 129.084 130.126 129.444 129.779C129.804 129.432 130.229 129.16 130.695 128.978C131.16 128.795 131.657 128.706 132.157 128.716C132.192 128.717 132.226 128.718 132.261 128.72Z" fill="#FFB6B6"/>
<path d="M142.076 145.601C142.397 145.171 142.535 144.991 142.608 145.04C142.795 145.154 142.615 146.672 143.934 149.319C145.792 153.037 165.27 158.732 165.27 158.732L167.669 154.337L178.217 135.023L181.853 119.543C181.98 119.003 182.042 118.45 182.037 117.895C178.795 115.612 175.353 113.628 171.752 111.969C170.313 112.786 169.216 114.094 168.661 115.654L161.4 136.035L158.503 144.172C158.503 144.172 153.391 140.513 151.537 141.185C149.686 141.86 149.16 140.913 150.37 137.88C151.58 134.847 149.764 137.969 147.651 138.167C145.533 138.369 147.651 138.167 146.65 136.88C145.65 135.593 139.183 134.869 139.183 134.869L139.046 135.156L136.54 140.316L135.822 141.799C135.822 141.799 138.479 144.685 139.12 145.26C139.764 145.839 139.963 145.799 139.648 146.459C139.336 147.116 140.963 147.086 142.076 145.601Z" fill="#DE8254"/>
</svg>
