<svg width="486" height="486" viewBox="0 0 486 486" fill="none" xmlns="http://www.w3.org/2000/svg">
<circle cx="243" cy="243" r="243" fill="#DDDDDD"/>
<g clip-path="url(#clip0_34_139)">
<path d="M222.504 406.59C227.873 406.208 229.274 407.266 237.397 406.59H252.29L250.353 370.985L226.907 380.37L110.394 383.228L110.462 383.425C110.515 383.577 115.688 398.694 111.644 404.418L111.477 404.655L111.804 404.658L218.686 405.637C219.853 405.648 221.346 406.672 222.504 406.59Z" fill="#F2F2F2"/>
<path d="M216.461 407.055C226.833 406.318 237.573 410.346 246.536 405.798L253.702 406.232L253.722 406.172C253.777 406.007 257.162 379.401 250.32 369.085L250.018 368.631L249.783 371.075L252.039 404.217L247.039 402.55C234.897 408.26 220.455 404.489 206.558 404.437L111.978 404.087C109.996 404.081 108.346 405.433 108.293 407.103L108.288 407.266L210.748 407.258C212.659 407.258 214.563 407.19 216.461 407.055Z" fill="#AAAAAA"/>
<path d="M116.963 390.408L223.398 388.295L223.507 388.255L248.654 378.839L248.179 377.573L223.14 386.948L116.936 389.056L116.963 390.408Z" fill="#E6E6E6"/>
<path d="M117.531 396.102L223.966 393.989L224.075 393.948L249.222 384.533L248.747 383.266L223.708 392.642L117.504 394.75L117.531 396.102Z" fill="#E6E6E6"/>
<path d="M118.099 401.796L224.534 399.682L224.643 399.642L249.79 390.226L249.315 388.959L224.276 398.335L118.072 400.444L118.099 401.796Z" fill="#E6E6E6"/>
<path d="M215.725 383.596C225.594 382.929 235.215 380.217 243.977 375.632L251.354 371.723L251.162 369.791C251.108 369.507 250.951 369.253 250.721 369.078C250.492 368.903 250.205 368.819 249.917 368.843L249.266 368.851L150.005 370.31C143.509 370.39 137.072 371.558 130.961 373.763L109.334 381.607L109.345 381.721C109.527 383.542 111.364 384.948 113.529 384.923L211.304 383.779C212.783 383.761 214.257 383.7 215.725 383.596Z" fill="#AAAAAA"/>
<path d="M109.542 382.025L109.564 382.024L228.595 379.299L228.678 379.262L250.139 369.333L249.921 369.001L249.269 369.009L228.396 378.67L110.468 381.367L109.523 381.39L109.542 382.025Z" fill="#AAAAAA"/>
<path d="M202.078 369.704L203.589 369.683L237.702 369.179L239.318 369.156C231.524 377.446 214.29 379.52 189.028 376.308L202.078 369.704Z" fill="#CCCCCC"/>
<path d="M99.081 167.338L97 172.174L100.401 189.348L135.098 184.529L134.821 163.586L134.125 159L99.081 167.338Z" fill="#FFB6B6"/>
<path d="M82.3279 394.011H89.9829L93.6263 364.515H82.3279V394.011Z" fill="#FFB6B6"/>
<path d="M105.098 403.994C105.097 404.86 104.752 405.691 104.139 406.303C103.526 406.916 102.695 407.26 101.827 407.261H87.2642L84.7537 402.084L83.7788 407.261H78.2896L79.8328 388.77L82.3278 388.625L90.7111 388.126L92.0623 388.042V393.28L103.685 401.302C104.121 401.603 104.478 402.005 104.724 402.474C104.97 402.943 105.098 403.465 105.098 403.994Z" fill="#6C756B"/>
<path d="M153.082 360.197H160.737L165.24 316.772L150.857 315.914L153.082 360.197Z" fill="#FFB6B6"/>
<path d="M175.852 370.18C175.852 371.047 175.507 371.877 174.894 372.49C174.28 373.102 173.449 373.447 172.582 373.448H158.018L155.508 368.271L154.533 373.448H149.044L150.587 354.957L152.813 354.826L161.343 354.313L162.817 354.228V359.466L174.44 367.488C174.876 367.789 175.232 368.192 175.478 368.661C175.724 369.129 175.852 369.651 175.852 370.18Z" fill="#6C756B"/>
<path d="M79.0787 368.575H79.1085L80.5807 320.615C79.628 318.779 79.1444 316.736 79.1732 314.668C79.2019 312.601 79.742 310.572 80.7454 308.764L80.9561 308.382L80.4097 305.852C79.7078 302.6 80.0298 299.211 81.3318 296.15L82.7052 251.412C77.7985 219.645 101.182 198.927 101.182 198.927L99.033 182.277L136.855 183.136L136.211 198.927L143.732 224.739C147.689 263.26 174.326 287.472 170.277 324.308C170.269 324.414 170.285 324.52 170.323 324.619C170.734 325.867 170.879 327.187 170.748 328.494C170.617 329.801 170.213 331.066 169.563 332.208C169.395 332.499 169.279 332.818 169.221 333.149C168.387 339.607 168.278 331.438 167.173 337.839L167.388 337.948C168.162 338.215 168.494 339.287 168.13 340.342C167.765 341.397 166.842 342.036 166.067 341.768L145.849 341.984C145.075 341.717 144.742 340.646 145.107 339.59C145.471 338.535 146.395 337.897 147.169 338.164L148.427 338.799L146.323 331.921L145.585 331.233C145.231 330.903 144.957 330.498 144.783 330.048C144.608 329.597 144.538 329.113 144.577 328.632C144.616 328.15 144.764 327.684 145.009 327.268C145.254 326.851 145.59 326.496 145.993 326.228L143.896 315.05L144.194 306.597L143.581 297.007L117.052 258.605L106.318 311.65L95.355 369.109C95.6108 369.339 95.8029 369.631 95.9131 369.957C96.0232 370.283 96.0476 370.632 95.9839 370.97C95.883 371.443 95.6208 371.865 95.2421 372.166C94.8634 372.466 94.392 372.626 93.9085 372.617H79.0253C78.7132 372.617 78.4055 372.544 78.1259 372.406C77.8464 372.267 77.6027 372.066 77.4138 371.818C77.2249 371.57 77.0958 371.281 77.0367 370.975C76.9776 370.669 76.99 370.354 77.073 370.053C77.1986 369.621 77.463 369.242 77.8255 368.975C78.1879 368.708 78.6283 368.567 79.0787 368.575Z" fill="#6C756B"/>
<path d="M92.314 89.822C92.3129 92.8841 93.0642 95.8997 94.502 98.6039C95.9398 101.308 98.0202 103.619 100.56 105.332C103.101 107.046 106.023 108.11 109.071 108.432C112.119 108.754 115.2 108.323 118.043 107.178C120.886 106.033 123.403 104.208 125.375 101.864C127.347 99.5197 128.713 96.7277 129.353 93.7331C129.993 90.7384 129.887 87.6327 129.044 84.6885C128.202 81.7443 126.649 79.0517 124.522 76.847L124.432 76.7573C124.282 76.6001 124.133 76.443 123.975 76.2933L123.972 76.2927L123.97 76.2911L123.968 76.2886L123.968 76.2858C123.753 76.1291 123.555 75.9511 123.376 75.7545C120.848 72.2257 117.982 69.2667 111.04 71.1153C101.045 73.7767 92.314 79.4884 92.314 89.822Z" fill="#2F2E41"/>
<path d="M195.178 81.8139C195.22 82.8147 195.042 83.8127 194.657 84.7375C194.272 85.6623 193.688 86.4915 192.947 87.1666C192.206 87.8416 191.326 88.3462 190.369 88.6448C189.412 88.9433 188.401 89.0286 187.407 88.8946L139.115 128.488L131.738 115.536L181.528 80.6896C181.864 79.0368 182.795 77.5645 184.145 76.5518C185.495 75.5391 187.17 75.0563 188.852 75.1949C190.535 75.3335 192.108 76.0838 193.274 77.3037C194.44 78.5237 195.117 80.1284 195.178 81.8139Z" fill="#FFB6B6"/>
<path d="M118.723 140.164C118.723 140.164 118.738 138.739 126.415 138.793C135.944 138.861 162.189 125.194 159.894 112.322C160.983 112.814 162.206 112.93 163.369 112.652C164.532 112.373 165.57 111.716 166.317 110.783L153.541 98.4942C149.532 98.7647 149.491 101.445 149.834 102.984L139.566 107.06L112.822 122.409L117.544 137.827L118.723 140.164Z" fill="#DE8254"/>
<path d="M115.653 109.837C106.981 109.837 99.9508 102.814 99.9508 94.1502C99.9508 85.4869 106.981 78.4638 115.653 78.4638C124.325 78.4638 131.355 85.4869 131.355 94.1502C131.355 102.814 124.325 109.837 115.653 109.837Z" fill="#FFB7B7"/>
<path d="M137.234 172.173C138.101 173.329 138.544 174.748 138.488 176.192C138.432 177.636 137.881 179.017 136.927 180.103C136.919 180.563 136.85 181.008 136.198 182.657C136.112 182.817 136.012 182.968 135.898 183.109C135.877 183.144 135.854 183.177 135.829 183.209C135.142 184.097 134.186 184.74 133.104 185.042L104.361 193.056L100.561 194.115L99.8929 194.299L99.5244 189.114C98.6698 188.407 98.097 187.417 97.9097 186.324C97.7224 185.231 97.933 184.107 98.5034 183.155L99.0331 182.281L95.9469 173.99L95.6475 173.17L87.7785 152.01L87.7708 150.599L87.7555 149.142L87.6787 138.972C87.675 135.767 88.4149 132.605 89.8401 129.733C91.2653 126.862 93.3372 124.359 95.8931 122.422C98.2212 120.645 100.905 119.389 103.762 118.741L103.824 118.733L106.933 114.553L119.546 115.811L120.59 117.951L121.857 120.527L131 125.965L134.125 133.22L136.236 138.129C139.507 140.475 141.457 143.49 142.017 147.079C143.215 154.702 137.871 162.333 137.234 163.207L137.073 171.958L137.234 172.173Z" fill="#DE8254"/>
<path d="M99.22 98.2626C99.3623 98.2401 99.5046 98.2101 99.6469 98.1877C102.096 97.7537 104.546 97.3272 106.987 96.8857L107.212 91.356L110.171 96.3095C116.919 98.5468 123.234 97.2823 129.173 94.4913C131.133 93.5621 133.034 92.5151 134.866 91.3561C135.469 82.0041 131.685 76.0171 124.642 76.645C124.385 76.668 124.2 76.4056 123.975 76.2933L123.972 76.2927L123.97 76.2911L123.968 76.2887L123.968 76.2858C123.586 76.1062 123.196 75.9341 122.807 75.777C119.757 74.5865 116.433 74.2851 113.219 74.9076C110.005 75.5301 107.033 77.0512 104.65 79.2939C99.8567 83.8659 97.6995 91.4159 99.22 98.2626Z" fill="#2F2E41"/>
<path d="M104.066 88.7134C107.696 83.9108 113.744 78.6259 123.455 76.4931C123.369 76.4144 123.284 76.3374 123.198 76.2619L122.826 76.2766L122.777 76.2786L122.729 76.2709L122.729 76.2709L122.729 76.2709L122.727 76.2707L122.719 76.2694L122.681 76.2641C122.647 76.2593 122.594 76.2525 122.524 76.2444C122.384 76.2283 122.176 76.2076 121.908 76.1899C121.372 76.1544 120.598 76.1311 119.658 76.1814C117.777 76.2819 115.241 76.6764 112.613 77.8481C108.068 79.8746 103.162 84.2634 100.943 93.7084C101.69 92.2378 102.709 90.5095 104.066 88.7134Z" fill="#EE584E" stroke="black"/>
<path d="M91.9763 207.526C92.3455 207.841 92.7945 208.049 93.274 208.126C93.7535 208.204 94.2451 208.148 94.6951 207.965C95.5901 207.586 96.3853 207.005 97.0183 206.268C99.6011 203.561 101.447 200.238 102.379 196.617L101.517 195.086C101.855 193.198 101.537 191.252 100.615 189.569C99.6935 187.887 98.2236 186.57 96.4495 185.838C95.4401 185.41 94.3211 185.313 93.2529 185.56C92.7233 185.691 92.2389 185.963 91.8512 186.347C91.4634 186.731 91.1866 187.212 91.05 187.74C90.7182 189.377 92.0838 190.856 93.4664 191.796C95.8757 193.429 98.6606 194.425 101.56 194.689C98.0134 196.686 94.9474 199.435 92.5775 202.742C92.0297 203.432 91.6256 204.225 91.3891 205.073C91.2755 205.498 91.2697 205.945 91.3722 206.374C91.4747 206.802 91.6823 207.198 91.9763 207.526Z" fill="#6C756B"/>
<path d="M340.878 408.698H77.3529C77.129 408.698 76.9143 408.609 76.756 408.451C76.5977 408.293 76.5087 408.078 76.5087 407.855C76.5087 407.631 76.5977 407.417 76.756 407.258C76.9143 407.1 77.129 407.011 77.3529 407.011H340.878C341.102 407.011 341.316 407.1 341.475 407.258C341.633 407.417 341.722 407.631 341.722 407.855C341.722 408.078 341.633 408.293 341.475 408.451C341.316 408.609 341.102 408.698 340.878 408.698Z" fill="#CCCCCC"/>
<path d="M226.382 191.012V191.453C227.332 190.341 228.3 189.24 229.259 188.138C229.662 187.679 230.064 187.219 230.467 186.759C232.174 184.824 233.89 182.896 235.616 180.973C237.352 179.058 239.087 177.142 240.842 175.236C241.264 174.776 241.686 174.316 242.117 173.856C242.462 173.47 242.838 173.111 243.239 172.783C243.644 172.447 244.109 172.19 244.61 172.027C245.186 171.867 245.795 171.861 246.374 172.008C247.036 172.161 247.669 172.4 248.311 172.602C248.973 172.822 249.625 173.033 250.286 173.243C251.61 173.674 252.923 174.106 254.247 174.536C254.263 174.543 254.28 174.546 254.297 174.546C254.314 174.546 254.331 174.542 254.347 174.536C254.363 174.529 254.377 174.519 254.389 174.507C254.401 174.495 254.411 174.48 254.417 174.464L254.419 174.46C254.427 174.442 254.43 174.422 254.429 174.402C254.428 174.383 254.423 174.364 254.414 174.346C254.405 174.329 254.392 174.314 254.376 174.302C254.36 174.29 254.342 174.282 254.323 174.278C253.997 174.172 253.662 174.067 253.326 173.962C251.993 173.521 250.67 173.09 249.337 172.659C248.676 172.439 248.014 172.228 247.352 172.017C246.739 171.784 246.091 171.655 245.435 171.634C244.364 171.711 243.359 172.182 242.616 172.956C242.203 173.339 241.829 173.741 241.455 174.153C241.014 174.632 240.573 175.111 240.132 175.59C238.358 177.525 236.597 179.466 234.849 181.414C233.094 183.368 231.356 185.325 229.633 187.286C229.508 187.43 229.384 187.573 229.259 187.717C228.291 188.809 227.341 189.91 226.382 191.012Z" fill="white"/>
<path d="M243.388 174.548C243.75 174.082 244.233 173.724 244.784 173.512L245.329 173.531C241.05 180.183 235.443 185.883 228.86 190.274C233.702 185.032 238.545 179.79 243.388 174.548Z" fill="white"/>
<path d="M149.139 240.093L169.938 128.681C170.294 126.844 171.263 125.183 172.687 123.97C174.11 122.756 175.903 122.063 177.772 122.003C177.94 121.999 178.109 121.999 178.277 122.003L192.445 122.511L193.97 122.567L201.042 122.822L202.566 122.874L207.115 123.038L298.832 126.333C298.971 126.34 299.113 126.34 299.251 126.336L319.803 125.906L327.409 125.749L327.652 125.746L333.266 125.626L382.182 124.609L395.15 124.336L401.545 124.205L403.078 124.171L410.369 124.022L411.898 123.988L419.358 123.835L420.887 123.801L429.083 123.629L430.369 123.603L437.679 123.45L438.834 123.427H439.002C440.943 123.435 442.818 124.129 444.297 125.387C445.776 126.645 446.762 128.385 447.083 130.3L465.893 245.911C466.084 247.082 466.018 248.281 465.7 249.424C465.382 250.567 464.82 251.628 464.052 252.532C463.283 253.436 462.328 254.162 461.251 254.66C460.175 255.158 459.003 255.416 457.817 255.416H349.789C348.199 255.42 346.652 255.931 345.371 256.874L343.323 258.392C341.911 259.432 340.206 259.995 338.453 260C317.589 254.491 295.653 254.491 274.789 260C273.713 260.003 272.648 259.792 271.654 259.38C270.66 258.968 269.758 258.363 269 257.599C267.703 256.302 265.972 255.531 264.141 255.435L156.756 249.774C155.592 249.713 154.454 249.404 153.419 248.867C152.383 248.33 151.474 247.578 150.753 246.662C150.032 245.745 149.515 244.685 149.237 243.552C148.958 242.419 148.925 241.24 149.139 240.093Z" fill="#CCCCCC"/>
<path d="M190.008 218.229C190.137 221.734 191.658 225.044 194.237 227.432C196.816 229.82 200.242 231.091 203.762 230.966C209.577 230.761 216.518 230.659 224.05 230.815C248.649 231.339 279.554 234.709 298.144 246.832C300.48 248.359 303.241 249.113 306.033 248.986C306.239 248.974 306.438 248.962 306.644 248.944C309.538 248.681 312.266 247.477 314.406 245.519C324.647 236.19 348.134 224.892 401.897 224.098C402.12 224.098 402.338 224.086 402.556 224.074C404.297 223.965 406 223.515 407.566 222.75C409.133 221.986 410.533 220.921 411.686 219.618C412.839 218.314 413.723 216.797 414.287 215.153C414.851 213.51 415.084 211.771 414.973 210.038L409.689 126.548L408.897 114.035L407.507 92.1437C407.367 89.9391 406.389 87.8703 404.772 86.3577C403.155 84.8451 401.02 84.0021 398.801 84H398.747L366.718 84.1866C353.224 84.7945 342.048 86.5059 333.19 89.3208C330.164 90.255 327.22 91.4347 324.387 92.8479C320.519 94.7152 317.043 97.2993 314.146 100.462C312.342 102.482 309.88 103.806 307.194 104.2C306.777 104.262 306.357 104.3 305.936 104.314C303.459 104.416 301.014 103.72 298.966 102.328C278.043 88.3698 235.404 87.3105 211.856 87.9124C208.563 87.9888 205.417 89.283 203.03 91.5429C200.643 93.8027 199.186 96.8663 198.943 100.137L197.988 112.59L197.039 125.007L191.562 196.772L190.038 216.737C190.001 217.233 189.991 217.732 190.008 218.229Z" fill="#F3F3F3"/>
<path d="M393.437 113.349C374.297 107.119 352.944 108.769 334.812 117.545C329.638 120.037 324.752 123.107 320.243 126.7C318.968 127.721 317.153 125.894 318.442 124.862C335.096 111.683 356.022 105.423 377.015 107.339C382.823 107.869 388.557 109.044 394.115 110.843C395.67 111.35 395.005 113.86 393.437 113.349Z" fill="#454545"/>
<path d="M288.057 127.599C270.077 118.167 248.547 116.111 228.999 121.465C223.426 122.987 218.04 125.125 212.94 127.837C211.48 128.615 210.178 126.398 211.641 125.619C230.273 115.697 252.638 113.413 272.983 118.944C278.659 120.489 284.149 122.648 289.356 125.381C290.823 126.151 289.523 128.369 288.057 127.599Z" fill="#454545"/>
<path d="M288.057 144.599C270.077 135.167 248.547 133.111 228.999 138.465C223.426 139.987 218.04 142.125 212.94 144.837C211.48 145.615 210.178 143.398 211.641 142.619C230.273 132.697 252.638 130.413 272.983 135.944C278.659 137.489 284.149 139.648 289.356 142.381C290.823 143.151 289.523 145.369 288.057 144.599Z" fill="#454545"/>
<path d="M211.009 160.591C210.995 160.372 211.048 160.154 211.162 159.966C211.275 159.778 211.442 159.627 211.643 159.535C226.571 151.797 243.497 148.659 260.242 150.524C260.347 150.532 260.443 150.549 260.557 150.557H260.561C260.664 150.566 260.766 150.582 260.868 150.603C270.827 151.737 280.489 154.685 289.366 159.298C289.559 159.412 289.719 159.574 289.831 159.767C289.942 159.961 290 160.181 290 160.404V192.092C289.997 192.287 289.949 192.479 289.86 192.653C289.771 192.827 289.643 192.978 289.486 193.096C289.329 193.214 289.147 193.295 288.953 193.333C288.76 193.371 288.561 193.364 288.37 193.315C287.975 193.202 287.58 193.094 287.177 192.99C278.203 190.586 268.991 189.16 259.704 188.737C259.507 188.728 259.309 188.72 259.103 188.712C251.539 188.39 243.961 188.66 236.44 189.518C236.283 189.527 236.126 189.544 235.97 189.568C235.583 189.61 235.188 189.655 234.802 189.705C234.646 189.722 234.499 189.739 234.357 189.764C232.853 189.951 231.361 190.163 229.866 190.391C227.707 190.732 225.548 191.112 223.388 191.531C223.254 191.556 223.115 191.589 222.977 191.614C219.511 192.296 216.062 193.086 212.63 193.959C212.439 194.008 212.239 194.013 212.046 193.974C211.852 193.936 211.67 193.854 211.513 193.735C211.356 193.617 211.229 193.465 211.14 193.29C211.051 193.116 211.003 192.924 211 192.728V160.641C210.999 160.623 211.002 160.606 211.009 160.591Z" fill="#6C756B"/>
<path d="M281.564 161.077L281.952 161.358C281.821 161.26 281.684 161.167 281.544 161.08L281.564 161.077Z" fill="white"/>
<path d="M393.437 130.349C374.297 124.119 352.944 125.769 334.812 134.545C329.638 137.037 324.752 140.107 320.243 143.7C318.968 144.721 317.153 142.894 318.442 141.862C335.096 128.683 356.022 122.423 377.015 124.339C382.823 124.869 388.557 126.044 394.115 127.843C395.67 128.35 395.005 130.86 393.437 130.349Z" fill="#454545"/>
<path d="M393.437 147.349C374.297 141.119 352.944 142.769 334.812 151.545C329.638 154.037 324.752 157.107 320.243 160.7C318.968 161.721 317.153 159.894 318.442 158.862C335.096 145.683 356.022 139.423 377.015 141.339C382.823 141.869 388.557 143.044 394.115 144.843C395.67 145.35 395.005 147.86 393.437 147.349Z" fill="#454545"/>
<path d="M393.437 164.349C374.297 158.119 352.944 159.769 334.812 168.545C329.638 171.037 324.752 174.107 320.243 177.7C318.968 178.721 317.153 176.894 318.442 175.862C335.096 162.683 356.022 156.423 377.015 158.339C382.823 158.869 388.557 160.044 394.115 161.843C395.67 162.35 395.005 164.86 393.437 164.349Z" fill="#454545"/>
<path d="M393.437 181.349C374.297 175.119 352.944 176.769 334.812 185.545C329.638 188.037 324.752 191.107 320.243 194.7C318.968 195.721 317.153 193.894 318.442 192.862C335.096 179.683 356.022 173.423 377.015 175.339C382.823 175.869 388.557 177.044 394.115 178.843C395.67 179.35 395.005 181.86 393.437 181.349Z" fill="#454545"/>
<path d="M393.437 199.032C374.297 193.113 352.944 194.68 334.812 203.018C329.638 205.385 324.752 208.302 320.243 211.715C318.968 212.685 317.153 210.949 318.442 209.969C335.096 197.449 356.022 191.502 377.015 193.322C382.823 193.825 388.557 194.942 394.115 196.651C395.67 197.132 395.005 199.517 393.437 199.032Z" fill="#454545"/>
<path d="M328.5 134.499V134.498L328.509 134.499C329.531 134.517 330.548 134.356 331.511 134.025C331.547 134.011 331.585 133.995 331.629 133.977L331.631 133.976C331.667 133.961 331.707 133.943 331.749 133.927C331.791 133.904 331.832 133.884 331.866 133.867L331.87 133.865C331.915 133.842 331.949 133.825 331.981 133.807C332.433 133.546 332.5 133.346 332.5 133.276V89.6766C329.757 90.5359 327.083 91.5898 324.5 92.8299V133.276C324.5 133.318 324.517 133.397 324.625 133.513C324.736 133.633 324.921 133.766 325.192 133.897C325.728 134.155 326.513 134.36 327.448 134.45C327.481 134.451 327.514 134.455 327.546 134.46C327.856 134.483 328.177 134.499 328.5 134.499Z" fill="#DE8254" stroke="#DE8254"/>
<path d="M306 102H307V249H306V102Z" fill="#E6E6E6"/>
<path d="M155.57 207.489C154.571 207.398 153.605 207.089 152.739 206.585C151.872 206.08 151.127 205.392 150.556 204.568C149.985 203.745 149.602 202.806 149.433 201.819C149.264 200.831 149.314 199.819 149.58 198.853L120.35 185.222L102.753 156.786L116.585 151.207L128.456 174.122L158.503 194.124C160.098 194.677 161.434 195.795 162.259 197.266C163.084 198.738 163.34 200.461 162.979 202.108C162.617 203.756 161.663 205.213 160.298 206.205C158.932 207.197 157.25 207.654 155.57 207.489Z" fill="#FFB6B6"/>
<path d="M91.8127 129.544C91.8127 129.544 88.368 130.668 92.1488 137.343C95.1756 142.686 109.92 173.467 115.938 179.511C115.305 180.525 115.028 181.72 115.149 182.909C115.271 184.097 115.785 185.212 116.61 186.076L130.503 175.063C130.769 171.057 128.115 170.66 126.543 170.795L123.347 159.478L112.199 131.563L94.2881 128.688L91.8127 129.544Z" fill="#DE8254"/>
<path d="M91.5985 77.2217C90.9417 74.5685 86.1764 72.6095 94.3392 68.9053C96.3203 68.0064 96.2382 64.9105 97.914 63.5241C99.5898 62.1377 102.044 61.4949 103.991 62.464C105.731 63.3293 106.711 65.2877 106.92 67.2176C107.02 69.1599 106.796 71.1054 106.256 72.9741L106.414 73.205C103.18 75.6769 99.9468 78.1487 96.7132 80.6204C95.525 81.5288 93.9717 82.4799 92.6401 81.7983C91.1326 81.0268 92.0052 78.8643 91.5985 77.2217Z" fill="#2F2E41"/>
</g>
<defs>
<clipPath id="clip0_34_139">
<rect width="453" height="346" fill="white" transform="matrix(-1 0 0 1 485 62)"/>
</clipPath>
</defs>
</svg>
