<svg width="383" height="280" viewBox="0 0 383 280" fill="none" xmlns="http://www.w3.org/2000/svg">
<path d="M10.1803 278.282L9 278.26C9.45648 265.69 10.8567 253.169 13.1898 240.792C18.2935 214.294 26.7802 196.891 38.4141 189.068L39.0919 189.993C11.915 208.269 10.1941 277.584 10.1803 278.282Z" fill="#E5E5E5"/>
<path d="M24.9339 278.011L23.7537 277.989C23.779 276.737 24.5167 247.233 36.6439 239.078L37.3217 240.003C25.6837 247.829 24.9397 277.71 24.9339 278.011Z" fill="#E5E5E5"/>
<path d="M45.8064 190.095C49.0657 190.095 51.7078 187.565 51.7078 184.443C51.7078 181.321 49.0657 178.791 45.8064 178.791C42.5472 178.791 39.905 181.321 39.905 184.443C39.905 187.565 42.5472 190.095 45.8064 190.095Z" fill="#DE8254"/>
<path d="M42.8841 238.705C46.1433 238.705 48.7854 236.174 48.7854 233.053C48.7854 229.931 46.1433 227.4 42.8841 227.4C39.6248 227.4 36.9827 229.931 36.9827 233.053C36.9827 236.174 39.6248 238.705 42.8841 238.705Z" fill="#DE8254"/>
<path d="M22.183 193.484C23.2921 200.269 20.4014 206.337 20.4014 206.337C20.4014 206.337 15.7126 201.405 14.6035 194.62C13.4944 187.835 16.3851 181.766 16.3851 181.766C16.3851 181.766 21.0739 186.699 22.183 193.484Z" fill="#E5E5E5"/>
<path d="M41.473 209.962C34.6905 212.19 27.9478 210.521 27.9478 210.521C27.9478 210.521 32.2014 205.24 38.9839 203.012C45.7663 200.783 52.5091 202.452 52.5091 202.452C52.5091 202.452 48.2554 207.734 41.473 209.962Z" fill="#E5E5E5"/>
<path d="M41.691 253.01C38.6214 253.934 35.3523 254.069 32.2109 253.402C34.2055 250.97 36.8919 249.142 39.9464 248.139C43.0008 247.135 46.2931 246.999 49.4265 247.747C47.3737 250.12 44.7062 251.935 41.691 253.01Z" fill="#E5E5E5"/>
<path d="M382.41 213.065H0.590139C0.433624 213.065 0.283529 213.005 0.172856 212.899C0.0621837 212.793 0 212.649 0 212.5C0 212.35 0.0621837 212.206 0.172856 212.1C0.283529 211.994 0.433624 211.934 0.590139 211.934H382.41C382.566 211.934 382.716 211.994 382.827 212.1C382.938 212.206 383 212.35 383 212.5C383 212.649 382.938 212.793 382.827 212.899C382.716 213.005 382.566 213.065 382.41 213.065Z" fill="#CBCBCB"/>
<path d="M241.834 239.122L237.006 251.157L186.24 239.048L193.365 221.285L241.834 239.122Z" fill="#FFB7B7"/>
<path d="M255.246 240.534L239.679 279.342L239.166 279.153C234.984 277.614 231.611 274.546 229.79 270.625C227.968 266.705 227.848 262.251 229.454 258.245L229.455 258.244L238.963 234.542L255.246 240.534Z" fill="#4A5549"/>
<path d="M164.693 88.4265L142.57 90.4104L141.472 153.457C141.765 156.547 143.31 159.404 145.776 161.416C148.242 163.428 151.432 164.436 154.664 164.222L168.69 163.297L164.693 88.4265Z" fill="#8D8C8C"/>
<path d="M242.687 85.3235L227.55 85.137L226.653 160.05C229.998 160.157 233.33 159.602 236.441 158.421C239.553 157.24 242.377 155.457 244.737 153.185C247.097 150.912 248.943 148.198 250.16 145.211C251.377 142.225 251.938 139.031 251.809 135.827L242.687 85.3235Z" fill="#8D8C8C"/>
<path d="M154.853 186.663C154.494 188.836 153.974 190.981 153.296 193.083C152.532 195.14 151.353 197.043 150.654 199.121C148.428 205.746 151.514 213.133 156.443 218.247C160.718 222.664 166.236 225.802 172.331 227.283C176.777 228.354 181.401 228.508 185.984 228.657C198.673 229.069 211.689 229.438 223.713 225.532C227.512 224.268 231.182 222.671 234.675 220.762C235.778 220.259 236.75 219.526 237.519 218.617C238.436 217.367 238.554 215.745 238.546 214.217C238.519 209.065 237.428 203.938 237.687 198.792C237.83 195.941 238.387 193.093 238.113 190.251C237.734 187.024 236.322 183.987 234.072 181.558C231.821 179.128 228.842 177.424 225.541 176.679C222.13 175.977 218.592 176.36 215.119 176.679C206.105 177.509 197.053 177.897 187.997 177.841C178.744 177.784 169.549 176.432 160.343 176.29C157.62 176.249 157.675 177.052 156.808 179.576C156.01 181.899 155.357 184.265 154.853 186.663Z" fill="#6C756B"/>
<path d="M118.672 182.475C116.184 181.876 113.62 181.615 111.057 181.7C108.363 181.842 105.731 182.533 103.338 183.725C100.944 184.917 98.8425 186.583 97.1732 188.613C95.5039 190.643 94.305 192.991 93.6562 195.499C93.0074 198.007 92.9235 200.619 93.4101 203.161C94.0314 205.914 95.0469 208.572 96.4278 211.059C98.4475 214.984 100.87 218.901 104.609 221.417C106.796 222.888 109.327 223.806 111.829 224.708L131.521 231.813C134.418 232.859 137.315 233.904 140.241 234.873C154.939 239.739 170.262 242.657 185.786 243.546C190.514 243.815 195.314 243.89 199.927 242.859C201.022 242.615 202.19 242.25 202.823 241.361C203.199 240.734 203.42 240.034 203.47 239.314L204.682 231.189C204.853 230.045 205.017 228.84 204.579 227.764C204.024 226.398 202.633 225.539 201.306 224.809C188.36 217.688 173.244 213.758 162.347 203.984C159.781 201.683 157.634 198.035 154.518 196.472C150.983 194.7 146.821 193.688 143.167 192.055C135.181 188.484 127.328 184.381 118.672 182.475Z" fill="#6C756B"/>
<path opacity="0.1" d="M138.332 193.429C145.292 195.518 174.679 209.99 179.716 215.043C179.041 215.276 156.133 202.98 155.446 202.783C149.198 200.987 142.915 199.179 136.981 196.55C135.788 196.022 129.227 193.536 129.524 192.094C129.859 190.466 137.096 193.058 138.332 193.429Z" fill="black"/>
<path d="M180.339 67.236L161.598 80.8646C161.598 80.8646 141.823 81.4571 142.492 93.5644C143.16 105.672 151.074 162.995 151.074 162.995L152.791 182.719L185.363 191.608C202.962 196.411 221.555 196.793 239.352 192.717L235.482 172.929C235.482 172.929 251.155 83.0626 241.713 79.106C232.271 75.1494 226.369 76.2798 226.369 76.2798L214.534 66.3882L180.339 67.236Z" fill="#8D8C8C"/>
<path d="M235.812 49.053C235.812 66.7452 218.731 64.0692 197.662 64.0692C176.592 64.0692 159.512 66.7452 159.512 49.053C159.512 31.3608 167.855 0 197.662 0C228.495 0 235.812 31.3608 235.812 49.053Z" fill="#2F2E41"/>
<path d="M217.493 55.0489C227.518 45.4468 227.518 29.8788 217.493 20.2768C207.468 10.6747 191.213 10.6747 181.188 20.2768C171.163 29.8788 171.163 45.4468 181.188 55.0489C191.213 64.6509 207.468 64.6509 217.493 55.0489Z" fill="#FFB7B7"/>
<path d="M167.873 37.0401H178.027L182.506 25.0271L183.402 37.0401H188.255L190.868 30.0325L191.39 37.0401H227.45C227.45 30.137 224.587 23.5166 219.49 18.6354C214.394 13.7542 207.482 11.012 200.275 11.012H195.049C187.841 11.012 180.929 13.7542 175.833 18.6354C170.736 23.5166 167.873 30.137 167.873 37.0401Z" fill="#2F2E41"/>
<path d="M223.419 70.0621H172.077V129.411H223.419V70.0621Z" fill="#DE8254"/>
<path d="M174.906 238.557L179.735 250.592L230.501 238.483L223.375 220.72L174.906 238.557Z" fill="#FFB7B7"/>
<path d="M177.777 233.977L187.285 257.679L187.286 257.68C188.892 261.686 188.772 266.139 186.95 270.06C185.129 273.981 181.756 277.049 177.574 278.588L177.061 278.776L161.494 239.969L177.777 233.977Z" fill="#4A5549"/>
<path d="M276.382 177.868C280.461 176.889 284.689 176.612 288.868 177.051C292.206 177.404 295.645 178.293 298.082 180.506C301.048 183.199 302.001 187.364 302.081 191.278C302.211 199.074 299.512 206.671 294.443 212.772C293.206 214.315 291.734 215.672 290.077 216.798C288.289 217.869 286.384 218.749 284.396 219.42L240.296 236.08C228.694 240.463 217.052 244.859 204.95 247.748C204.292 248.052 203.535 248.094 202.846 247.863C202.156 247.633 201.59 247.149 201.272 246.519C201.262 246.5 201.253 246.481 201.244 246.461C197.38 241.175 194.138 235.496 191.578 229.527C191.457 229.385 191.373 229.217 191.334 229.038C191.295 228.858 191.301 228.673 191.353 228.496C191.405 228.32 191.5 228.158 191.631 228.024C191.762 227.89 191.924 227.788 192.105 227.728L223.297 210.562C225.531 209.333 227.79 208.085 229.646 206.372C230.994 205.121 232.098 203.649 232.905 202.026C233.552 200.733 233.612 197.68 234.438 196.724C235.247 195.788 238.013 195.713 239.29 195.345C241.092 194.817 242.856 194.178 244.573 193.433C251.55 190.443 257.763 186.099 264.452 182.599C268.204 180.544 272.213 178.955 276.382 177.868Z" fill="#6C756B"/>
<path opacity="0.1" d="M258.699 190.687C253.34 194.542 246.401 198.086 241.09 202.043C239.278 203.393 209.06 219.665 208.633 221.826C213.588 222.625 245.152 201.476 249.668 199.365C254.184 197.255 258.188 194.279 262.155 191.325C263.166 190.572 267.45 188.309 264.548 187.468C262.913 186.994 259.906 189.917 258.699 190.687Z" fill="black"/>
<path d="M366.936 113.554C374.08 113.554 379.872 108.007 379.872 101.164C379.872 94.3211 374.08 88.7739 366.936 88.7739C359.792 88.7739 354 94.3211 354 101.164C354 108.007 359.792 113.554 366.936 113.554Z" fill="#F1F1F1"/>
<path d="M39.3723 70.3376C45.1007 70.3376 49.7446 65.8898 49.7446 60.4032C49.7446 54.9166 45.1007 50.4688 39.3723 50.4688C33.6438 50.4688 29 54.9166 29 60.4032C29 65.8898 33.6438 70.3376 39.3723 70.3376Z" fill="#F1F1F1"/>
<path d="M104.276 117.076C108.295 117.076 111.552 113.956 111.552 110.107C111.552 106.258 108.295 103.138 104.276 103.138C100.258 103.138 97 106.258 97 110.107C97 113.956 100.258 117.076 104.276 117.076Z" fill="#F1F1F1"/>
<path d="M78.9287 25.7729C83.3076 25.7729 86.8573 22.373 86.8573 18.1789C86.8573 13.9849 83.3076 10.585 78.9287 10.585C74.5498 10.585 71 13.9849 71 18.1789C71 22.373 74.5498 25.7729 78.9287 25.7729Z" fill="#F1F1F1"/>
<path opacity="0.17" d="M154.372 107.933L155.081 102.693C155.081 102.693 181.519 104.541 177.388 110.759C173.257 116.976 163.224 117.541 163.224 117.541L154.372 107.933Z" fill="#2F2E41"/>
<path d="M174.328 85.1496C175.843 85.3093 177.302 85.7881 178.6 86.5517C179.898 87.3152 181.004 88.3446 181.838 89.5659C182.598 90.6803 183.114 91.9304 183.357 93.2409C183.6 94.5515 183.563 95.8955 183.25 97.1922C182.937 98.4889 182.353 99.7117 181.534 100.787C180.715 101.862 179.678 102.768 178.484 103.449C178.046 103.697 177.59 103.912 177.118 104.093L160.867 151.701C160.397 152.64 159.736 153.481 158.925 154.175C158.114 154.869 157.167 155.403 156.14 155.746C155.112 156.088 154.024 156.233 152.938 156.172C151.852 156.11 150.789 155.844 149.811 155.388C148.833 154.932 147.959 154.295 147.238 153.514C146.518 152.733 145.966 151.824 145.614 150.838C145.261 149.852 145.116 148.809 145.186 147.769C145.256 146.729 145.54 145.713 146.022 144.778L163.304 97.6992C162.833 96.1415 162.77 94.4967 163.121 92.9103C163.472 91.324 164.226 89.8449 165.316 88.6041C166.406 87.3633 167.799 86.3989 169.371 85.7964C170.943 85.1939 172.646 84.9717 174.328 85.1496Z" fill="#FFB7B7"/>
<path d="M154.615 103.139C154.615 103.139 163.926 118.376 177.388 110.759L164.342 158.576H153.35L141.979 156.542L145.163 136.786L154.615 103.139Z" fill="#8D8C8C"/>
<path d="M221.1 113.554L213.386 103.411C213.386 103.411 217.094 92.8902 231.469 96.7374C231.469 96.7374 240.616 116.349 221.1 113.554Z" fill="#E5E5E5"/>
<path opacity="0.17" d="M221.1 113.554L213.386 103.411C213.386 103.411 217.094 92.8902 231.469 96.7374C231.469 96.7374 240.616 116.349 221.1 113.554Z" fill="#2F2E41"/>
<path d="M223.142 78.1161C225.367 79.1069 227.148 80.8299 228.158 82.9716C229.169 85.1134 229.344 87.5315 228.651 89.7861L245.932 136.865C246.414 137.8 246.698 138.816 246.768 139.856C246.838 140.896 246.693 141.939 246.341 142.925C245.989 143.911 245.437 144.82 244.716 145.601C243.996 146.382 243.121 147.019 242.143 147.475C241.165 147.931 240.102 148.198 239.016 148.259C237.93 148.321 236.842 148.176 235.814 147.833C234.787 147.49 233.84 146.957 233.029 146.262C232.218 145.568 231.558 144.727 231.087 143.787L214.837 96.1797C214.365 95.9991 213.908 95.784 213.47 95.5364C212.276 94.8548 211.239 93.9491 210.42 92.8739C209.601 91.7986 209.017 90.5759 208.704 89.2791C208.391 87.9824 208.355 86.6384 208.597 85.3278C208.84 84.0173 209.357 82.7673 210.116 81.6528C210.95 80.4315 212.056 79.4021 213.354 78.6386C214.653 77.875 216.111 77.3962 217.626 77.2366C219.514 77.0316 221.425 77.3362 223.142 78.1161Z" fill="#FFB7B7"/>
<path d="M213.386 103.411C213.386 103.411 226.113 110.807 231.469 96.7374L249.402 141.964L244.073 150.89L243.303 150.951C240.124 151.205 236.928 150.716 233.99 149.526C231.052 148.336 228.459 146.481 226.434 144.12C222.305 139.304 219.494 133.578 218.255 127.46L213.386 103.411Z" fill="#8D8C8C"/>
<path d="M336.441 49.9813C346.625 49.9813 354.881 42.0737 354.881 32.3191C354.881 22.5646 346.625 14.657 336.441 14.657C326.256 14.657 318 22.5646 318 32.3191C318 42.0737 326.256 49.9813 336.441 49.9813Z" fill="#F1F1F1"/>
<path d="M378.329 271.578L379.51 271.556C379.053 258.987 377.653 246.466 375.32 234.089C370.216 207.591 361.729 190.188 350.095 182.364L349.417 183.289C376.595 201.565 378.316 270.88 378.329 271.578Z" fill="#E5E5E5"/>
<path d="M363.575 271.308L364.755 271.286C364.73 270.034 363.992 240.53 351.865 232.375L351.187 233.3C362.825 241.126 363.569 271.007 363.575 271.308Z" fill="#E5E5E5"/>
<path d="M342.702 183.392C339.443 183.392 336.801 180.861 336.801 177.74C336.801 174.618 339.443 172.087 342.702 172.087C345.962 172.087 348.604 174.618 348.604 177.74C348.604 180.861 345.962 183.392 342.702 183.392Z" fill="#DE8254"/>
<path d="M345.625 232.001C342.366 232.001 339.724 229.471 339.724 226.349C339.724 223.228 342.366 220.697 345.625 220.697C348.885 220.697 351.527 223.228 351.527 226.349C351.527 229.471 348.885 232.001 345.625 232.001Z" fill="#DE8254"/>
<path d="M366.326 186.78C365.217 193.565 368.108 199.634 368.108 199.634C368.108 199.634 372.797 194.702 373.906 187.917C375.015 181.132 372.124 175.063 372.124 175.063C372.124 175.063 367.435 179.995 366.326 186.78Z" fill="#E5E5E5"/>
<path d="M347.036 203.259C353.819 205.487 360.562 203.818 360.562 203.818C360.562 203.818 356.308 198.537 349.525 196.308C342.743 194.08 336 195.749 336 195.749C336 195.749 340.253 201.03 347.036 203.259Z" fill="#E5E5E5"/>
<path d="M346.818 246.307C349.888 247.23 353.157 247.366 356.298 246.699C354.304 244.267 351.617 242.439 348.563 241.435C345.508 240.432 342.216 240.296 339.082 241.043C341.135 243.416 343.803 245.231 346.818 246.307Z" fill="#E5E5E5"/>
</svg>
