<svg width="28" height="28" viewBox="0 0 28 28" fill="none" xmlns="http://www.w3.org/2000/svg">
<path d="M7 19.8334H7.01085" stroke="#454545" stroke-width="2" stroke-linecap="round" stroke-linejoin="round"/>
<path d="M2.33331 8.16663H11.6666" stroke="#454545" stroke-width="2" stroke-linecap="round" stroke-linejoin="round"/>
<path d="M2.33319 8.16667C2.33319 6.53318 2.33319 5.71643 2.65108 5.09252C2.93072 4.54372 3.37691 4.09753 3.92571 3.81789C4.54962 3.5 5.36637 3.5 6.99986 3.5C8.63334 3.5 9.45009 3.5 10.074 3.81789C10.6228 4.09753 11.069 4.54372 11.3486 5.09252C11.6665 5.71643 11.6665 6.53318 11.6665 8.16667V19.8333C11.6665 21.4668 11.6665 22.2836 11.3486 22.9075C11.069 23.4563 10.6228 23.9024 10.074 24.1821C9.45009 24.5 8.63334 24.5 6.99986 24.5C5.36637 24.5 4.54962 24.5 3.92571 24.1821C3.37691 23.9024 2.93072 23.4563 2.65108 22.9075C2.33319 22.2836 2.33319 21.4668 2.33319 19.8333V8.16667Z" stroke="#454545" stroke-width="2" stroke-linecap="round" stroke-linejoin="round"/>
<path d="M20.7448 19.478L20.7553 19.4752" stroke="#454545" stroke-width="2" stroke-linecap="round" stroke-linejoin="round"/>
<path d="M14 9.33355L21.5834 7" stroke="#454545" stroke-width="2" stroke-linecap="round" stroke-linejoin="round"/>
<path d="M13.3565 9.6465C12.9425 8.09477 12.7355 7.31892 12.8781 6.64532C13.0035 6.0528 13.3124 5.51538 13.7608 5.11006C14.2704 4.64926 15.0431 4.44137 16.5883 4.02558C18.1336 3.6098 18.9063 3.40192 19.577 3.54509C20.1671 3.67103 20.7022 3.98132 21.1059 4.43148C21.5647 4.94323 21.7718 5.7191 22.1859 7.27082L25.1431 18.3535C25.5572 19.9052 25.7642 20.681 25.6216 21.3547C25.4962 21.9472 25.1872 22.4846 24.7389 22.89C24.2293 23.3507 23.4566 23.5586 21.9114 23.9744C20.3661 24.3902 19.5934 24.5981 18.9227 24.455C18.3326 24.329 17.7975 24.0186 17.3938 23.5685C16.9349 23.0567 16.7279 22.2809 16.3138 20.7292L13.3565 9.6465Z" stroke="#454545" stroke-width="2" stroke-linecap="round" stroke-linejoin="round"/>
</svg>
