<svg width="32" height="33" viewBox="0 0 32 33" fill="none" xmlns="http://www.w3.org/2000/svg">
<path d="M8 23.1667H8.01197" stroke="#EEEEEE" stroke-width="2" stroke-linecap="round" stroke-linejoin="round"/>
<path d="M2.6665 9.83333H13.3332" stroke="#DE8254" stroke-width="3" stroke-linecap="round" stroke-linejoin="round"/>
<path d="M2.6665 9.83333C2.6665 7.96649 2.6665 7.03307 3.02981 6.32003C3.3494 5.69283 3.85933 5.18289 4.48653 4.86331C5.19957 4.5 6.133 4.5 7.99984 4.5C9.86668 4.5 10.8001 4.5 11.5131 4.86331C12.1403 5.18289 12.6503 5.69283 12.9699 6.32003C13.3332 7.03307 13.3332 7.96649 13.3332 9.83333V23.1667C13.3332 25.0335 13.3332 25.9669 12.9699 26.68C12.6503 27.3072 12.1403 27.8171 11.5131 28.1367C10.8001 28.5 9.86668 28.5 7.99984 28.5C6.133 28.5 5.19957 28.5 4.48653 28.1367C3.85933 27.8171 3.3494 27.3072 3.02981 26.68C2.6665 25.9669 2.6665 25.0335 2.6665 23.1667V9.83333Z" stroke="#EEEEEE" stroke-width="3" stroke-linecap="round" stroke-linejoin="round"/>
<path d="M23.7085 22.7604L23.7201 22.7573" stroke="#EEEEEE" stroke-width="2" stroke-linecap="round" stroke-linejoin="round"/>
<path d="M16 11.1669L24.6668 8.5" stroke="#DE8254" stroke-width="3" stroke-linecap="round" stroke-linejoin="round"/>
<path d="M15.2646 11.5246C14.7914 9.75117 14.5549 8.86448 14.7178 8.09465C14.8612 7.41749 15.2142 6.80329 15.7266 6.34006C16.309 5.81344 17.1921 5.57585 18.9581 5.10066C20.7241 4.62549 21.6072 4.3879 22.3737 4.55153C23.0481 4.69546 23.6597 5.05008 24.121 5.56454C24.6454 6.14941 24.8821 7.03612 25.3553 8.8095L28.735 21.4755C29.2082 23.2488 29.4448 24.1355 29.2818 24.9053C29.1385 25.5825 28.7854 26.1967 28.273 26.66C27.6906 27.1865 26.8076 27.4241 25.0416 27.8993C23.2756 28.3745 22.3925 28.6121 21.626 28.4485C20.9516 28.3045 20.34 27.9499 19.8786 27.4355C19.3542 26.8505 19.1176 25.9639 18.6444 24.1905L15.2646 11.5246Z" stroke="#EEEEEE" stroke-width="3" stroke-linecap="round" stroke-linejoin="round"/>
</svg>
