<svg width="32" height="33" viewBox="0 0 32 33" fill="none" xmlns="http://www.w3.org/2000/svg">
<path d="M12 24C12.0981 26.4692 14.1559 28.5658 16.9125 28.4984C17.5539 28.4828 18.3465 28.2592 19.9318 27.812C23.7472 26.7358 27.0593 24.9272 27.8539 20.8754C28 20.1306 28 19.2925 28 17.6164V15.3836C28 13.7075 28 12.8694 27.8539 12.1246C27.0593 8.07281 23.7472 6.26416 19.9318 5.18798C18.3465 4.7408 17.5539 4.51722 16.9125 4.50152C14.1559 4.43408 12.0981 6.53071 12 8.99996" stroke="#454545" stroke-width="3" stroke-linecap="round"/>
<path d="M18.6667 16.5H4.00002M18.6667 16.5C18.6667 15.5664 16.0076 13.8221 15.3334 13.1667M18.6667 16.5C18.6667 17.4336 16.0076 19.178 15.3334 19.8334" stroke="#DE8254" stroke-width="3" stroke-linecap="round" stroke-linejoin="round"/>
</svg>
