<svg width="27" height="27" viewBox="0 0 27 27" fill="none" xmlns="http://www.w3.org/2000/svg">
<path d="M15.75 18C15.75 15.8787 15.75 14.8181 16.409 14.159C17.0681 13.5 18.1287 13.5 20.25 13.5C22.3713 13.5 23.4319 13.5 24.091 14.159C24.75 14.8181 24.75 15.8787 24.75 18C24.75 20.1213 24.75 21.1819 24.091 21.841C23.4319 22.5 22.3713 22.5 20.25 22.5C18.1287 22.5 17.0681 22.5 16.409 21.841C15.75 21.1819 15.75 20.1213 15.75 18Z" fill="#EEEEEE" stroke="#EEEEEE" stroke-width="3"/>
<path d="M15.75 18V13.3454C15.75 9.22015 18.5802 5.72157 22.5 4.5" stroke="#EEEEEE" stroke-width="3" stroke-linecap="round"/>
<path d="M2.25 18C2.25 15.8787 2.25 14.8181 2.90901 14.159C3.56802 13.5 4.62868 13.5 6.75 13.5C8.87132 13.5 9.93198 13.5 10.591 14.159C11.25 14.8181 11.25 15.8787 11.25 18C11.25 20.1213 11.25 21.1819 10.591 21.841C9.93198 22.5 8.87132 22.5 6.75 22.5C4.62868 22.5 3.56802 22.5 2.90901 21.841C2.25 21.1819 2.25 20.1213 2.25 18Z" fill="#EEEEEE" stroke="#EEEEEE" stroke-width="3"/>
<path d="M2.25 18V13.3454C2.25 9.22015 5.08017 5.72157 9 4.5" stroke="#EEEEEE" stroke-width="3" stroke-linecap="round"/>
</svg>
