<svg width="27" height="27" viewBox="0 0 27 27" fill="none" xmlns="http://www.w3.org/2000/svg">
<path d="M11.25 9C11.25 11.1213 11.25 12.1819 10.591 12.841C9.93198 13.5 8.87132 13.5 6.75 13.5C4.62868 13.5 3.56802 13.5 2.90901 12.841C2.25 12.1819 2.25 11.1213 2.25 9C2.25 6.87868 2.25 5.81802 2.90901 5.15901C3.56802 4.5 4.62868 4.5 6.75 4.5C8.87132 4.5 9.93198 4.5 10.591 5.15901C11.25 5.81802 11.25 6.87868 11.25 9Z" fill="#EEEEEE" stroke="#EEEEEE" stroke-width="3"/>
<path d="M11.25 7.875V12.9174C11.25 17.3865 8.41983 21.1767 4.5 22.5" stroke="#EEEEEE" stroke-width="3" stroke-linecap="round"/>
<path d="M24.75 9C24.75 11.1213 24.75 12.1819 24.091 12.841C23.4319 13.5 22.3713 13.5 20.25 13.5C18.1287 13.5 17.0681 13.5 16.409 12.841C15.75 12.1819 15.75 11.1213 15.75 9C15.75 6.87868 15.75 5.81802 16.409 5.15901C17.0681 4.5 18.1287 4.5 20.25 4.5C22.3713 4.5 23.4319 4.5 24.091 5.15901C24.75 5.81802 24.75 6.87868 24.75 9Z" fill="#EEEEEE" stroke="#EEEEEE" stroke-width="3"/>
<path d="M24.75 7.875V12.9174C24.75 17.3865 21.9198 21.1767 18 22.5" stroke="#EEEEEE" stroke-width="3" stroke-linecap="round"/>
</svg>
