<svg width="29" height="29" viewBox="0 0 29 29" fill="none" xmlns="http://www.w3.org/2000/svg">
<path d="M23.5625 6.64581L22.8137 18.7595C22.6223 21.8544 22.5267 23.4019 21.751 24.5145C21.3673 25.0646 20.8736 25.5288 20.3008 25.8776C19.1425 26.5833 17.5921 26.5833 14.4912 26.5833C11.3863 26.5833 9.83378 26.5833 8.67469 25.8763C8.10163 25.5269 7.60767 25.0618 7.22424 24.5108C6.44873 23.3965 6.35517 21.8468 6.16807 18.7475L5.4375 6.64581" stroke="#DE8254" stroke-width="3" stroke-linecap="round"/>
<path d="M25.375 6.64581H3.625" stroke="#DE8254" stroke-width="3" stroke-linecap="round"/>
<path d="M19.403 6.64585L18.578 4.94419C18.0301 3.81383 17.7561 3.24865 17.2836 2.89617C17.1787 2.81797 17.0677 2.74842 16.9516 2.6882C16.4283 2.41669 15.8002 2.41669 14.544 2.41669C13.2563 2.41669 12.6124 2.41669 12.0804 2.69958C11.9625 2.76228 11.85 2.83465 11.744 2.91593C11.2659 3.2827 10.9989 3.86856 10.4648 5.04029L9.73291 6.64585" stroke="#DE8254" stroke-width="3" stroke-linecap="round"/>
<path d="M11.479 19.9375V12.6875" stroke="#DE8254" stroke-width="3" stroke-linecap="round"/>
<path d="M17.521 19.9375V12.6875" stroke="#DE8254" stroke-width="3" stroke-linecap="round"/>
</svg>
