<svg width="32" height="33" viewBox="0 0 32 33" fill="none" xmlns="http://www.w3.org/2000/svg">
<path d="M15.3332 19.1821C12.6043 19.0552 9.84429 19.7085 7.4366 21.1421C5.55024 22.2653 0.604325 24.5588 3.61672 27.4288C5.08825 28.8306 6.72716 29.8333 8.78767 29.8333H15.9998" stroke="#454545" stroke-width="3" stroke-linecap="round" stroke-linejoin="round"/>
<path d="M20.6665 9.16669C20.6665 12.4804 17.9802 15.1667 14.6665 15.1667C11.3528 15.1667 8.6665 12.4804 8.6665 9.16669C8.6665 5.85298 11.3528 3.16669 14.6665 3.16669C17.9802 3.16669 20.6665 5.85298 20.6665 9.16669Z" stroke="#454545" stroke-width="3"/>
<path d="M23.9998 28.119V29.8333M23.9998 28.119C22.4574 28.119 21.0986 27.3614 20.3016 26.211M23.9998 28.119C25.5422 28.119 26.901 27.3614 27.6981 26.211M20.3016 26.211L18.667 27.2618M20.3016 26.211C19.8302 25.5306 19.5554 24.7129 19.5554 23.8333C19.5554 22.9537 19.8301 22.1361 20.3014 21.4558M27.6981 26.211L29.3326 27.2618M27.6981 26.211C28.1694 25.5306 28.4442 24.7129 28.4442 23.8333C28.4442 22.9537 28.1696 22.1361 27.6982 21.4558M23.9998 19.5476C25.5424 19.5476 26.9013 20.3053 27.6982 21.4558M23.9998 19.5476C22.4573 19.5476 21.0984 20.3053 20.3014 21.4558M23.9998 19.5476V17.8333M27.6982 21.4558L29.3332 20.4048M20.3014 21.4558L18.6665 20.4048" stroke="#DE8254" stroke-width="3" stroke-linecap="round"/>
</svg>
