<svg width="32" height="33" viewBox="0 0 32 33" fill="none" xmlns="http://www.w3.org/2000/svg">
<path d="M15.3332 19.1821C12.6043 19.0552 9.84429 19.7085 7.4366 21.1421C5.55024 22.2653 0.604325 24.5588 3.61672 27.4288C5.08825 28.8307 6.72716 29.8333 8.78767 29.8333H15.9998" stroke="#EEEEEE" stroke-width="3" stroke-linecap="round" stroke-linejoin="round"/>
<path d="M20.6665 9.16667C20.6665 12.4804 17.9802 15.1667 14.6665 15.1667C11.3528 15.1667 8.6665 12.4804 8.6665 9.16667C8.6665 5.85297 11.3528 3.16667 14.6665 3.16667C17.9802 3.16667 20.6665 5.85297 20.6665 9.16667Z" stroke="#EEEEEE" stroke-width="3"/>
<path d="M23.9998 28.1191V29.8333M23.9998 28.1191C22.4574 28.1191 21.0986 27.3615 20.3016 26.2111M23.9998 28.1191C25.5422 28.1191 26.901 27.3615 27.6981 26.2111M20.3016 26.2111L18.667 27.2619M20.3016 26.2111C19.8302 25.5307 19.5554 24.7129 19.5554 23.8333C19.5554 22.9537 19.8301 22.1361 20.3014 21.4559M27.6981 26.2111L29.3326 27.2619M27.6981 26.2111C28.1694 25.5307 28.4442 24.7129 28.4442 23.8333C28.4442 22.9537 28.1696 22.1361 27.6982 21.4559M23.9998 19.5476C25.5424 19.5476 26.9013 20.3053 27.6982 21.4559M23.9998 19.5476C22.4573 19.5476 21.0984 20.3053 20.3014 21.4559M23.9998 19.5476V17.8333M27.6982 21.4559L29.3332 20.4048M20.3014 21.4559L18.6665 20.4048" stroke="#DE8254" stroke-width="3" stroke-linecap="round"/>
</svg>
